<svg width="46" height="46" viewBox="0 0 46 46" fill="none" xmlns="http://www.w3.org/2000/svg">
<mask id="mask0" mask-type="alpha" maskUnits="userSpaceOnUse" x="0" y="0" width="46" height="46">
<circle cx="23" cy="23" r="23" fill="#0BCAD4"/>
</mask>
<g mask="url(#mask0)">
<circle cx="23" cy="23" r="23" fill="#0BCAD4"/>
<path d="M14.9138 17.2237V21.2488C13.2881 21.3471 12 22.6961 12 24.3465C12 26.0163 13.3187 27.3777 14.9715 27.4472C15.4484 31.5538 18.9364 34.7421 23.171 34.7421L24.1434 17.2236H14.9138V17.2237Z" fill="#F6DCCD"/>
<path d="M31.4282 21.2488V17.2237H23.171V34.7422C27.4056 34.7422 30.8936 31.5539 31.3705 27.4473C33.0232 27.3777 34.342 26.0163 34.342 24.3465C34.342 22.6961 33.0537 21.3472 31.4282 21.2488Z" fill="#F1CBBC"/>
<path d="M22.005 27.1249H19.6026C19.6026 29.0925 21.2034 30.6933 23.171 30.6933L23.7619 29.4876L23.171 28.291C22.528 28.291 22.005 27.7679 22.005 27.1249Z" fill="#DE9180"/>
<path d="M24.337 27.1249C24.337 27.7679 23.8139 28.291 23.171 28.291V30.6933C25.1386 30.6933 26.7393 29.0925 26.7393 27.1249H24.337Z" fill="#D27F6C"/>
<path d="M21.3982 11H19.8537C17.1255 11 14.9139 13.2116 14.9139 15.9398V18.2274H23.7942L23.1711 11H21.3982Z" fill="#A45D4E"/>
<path d="M23.171 11V18.2274H28.4331C31.1613 18.2274 33.3729 16.0159 33.3729 13.2877V11H23.171Z" fill="#8F5041"/>
</g>
</svg>
