<svg width="46" height="46" viewBox="0 0 46 46" fill="none" xmlns="http://www.w3.org/2000/svg">
<mask id="mask0" mask-type="alpha" maskUnits="userSpaceOnUse" x="0" y="0" width="46" height="46">
<circle cx="23" cy="23" r="23" fill="#0BCAD4"/>
</mask>
<g mask="url(#mask0)">
<circle cx="23" cy="23" r="23" fill="#0BCAD4"/>
<ellipse cx="19" cy="29.5" rx="9" ry="2.5" fill="#0AA8B0"/>
<path d="M22.4942 16.4405L22.278 16.6567L21.2012 21.6782L18.9486 23.9307L20.1384 25.8618L26.8597 19.7217L22.4942 16.4405Z" fill="#D5E7FF"/>
<path d="M29.5597 23.506L26.5691 19.4311L20.1384 25.8618L22.0694 27.0516L24.3219 24.799L29.3435 23.7222L29.5597 23.506Z" fill="#ACCEFF"/>
<path d="M20.7996 25.7817L18.9486 23.9308L16.6465 26.2329C15.7847 27.0947 15.7847 28.4919 16.6465 29.3536L20.7996 25.7817Z" fill="#6B66D0"/>
<path d="M22.0695 27.0516L20.509 25.4912L16.6465 29.3537C17.5083 30.2155 18.9055 30.2155 19.7673 29.3537L22.0695 27.0516Z" fill="#524798"/>
<path d="M41.5369 4.46333C39.5857 2.51226 36.4224 2.51226 34.4713 4.46333L33.5023 5.43238L36.722 9.85938L41.5369 4.46333Z" fill="#D5E7FF"/>
<path d="M41.5369 4.46333L36.4773 9.52293L40.5678 12.4979L41.5369 11.5289C43.488 9.57778 43.488 6.41445 41.5369 4.46333Z" fill="#ACCEFF"/>
<path d="M22.4927 16.4404L33.4991 5.43396L37.3219 9.25672L26.3155 20.2631L22.4927 16.4404Z" fill="#EAF1FF"/>
<path d="M26.0248 19.9731L37.0312 8.96671L40.5635 12.499L29.5571 23.5054L26.0248 19.9731Z" fill="#D5E7FF"/>
<path d="M26.2712 16.8547L32.9704 10.1555L34.5869 11.772L27.8877 18.4712L26.2712 16.8547Z" fill="#D5E7FF"/>
<path d="M27.707 18.2908L34.4062 11.5915L35.8421 13.0274L29.1428 19.7266L27.707 18.2908Z" fill="#ACCEFF"/>
<path d="M35.4348 7.36494C34.551 8.24872 34.551 9.68167 35.4348 10.5654L37.3256 9.25579L38.6353 7.36494C37.7515 6.48112 36.3186 6.48112 35.4348 7.36494Z" fill="#E06379"/>
<path d="M38.6353 7.36494L35.4348 10.5654C36.3185 11.4492 37.7515 11.4492 38.6353 10.5654C39.5191 9.68162 39.5191 8.24872 38.6353 7.36494Z" fill="#C63C50"/>
</g>
</svg>
