<svg width="32" height="46" viewBox="0 0 32 46" fill="none" xmlns="http://www.w3.org/2000/svg">
<mask id="mask0" mask-type="alpha" maskUnits="userSpaceOnUse" x="0" y="0" width="46" height="46">
<circle cx="23" cy="23" r="23" fill="#0BCAD4"/>
</mask>
<g mask="url(#mask0)">
<circle cx="23" cy="23" r="23" fill="#0BCAD4"/>
<path d="M9.8085 27.6261L7 30.5511V36.7335H15L15.3606 32.6138L15 27.6261H9.8085Z" fill="#ECBD2C"/>
<path d="M22.9363 30.5511L20.1051 27.6261H15V36.7335H22.9363V30.5511Z" fill="#E68F21"/>
<path d="M15.3606 13.5841L9.08675 15.3145V16.6061C7.9225 16.6766 7 17.6426 7 18.8245C7 20.0204 7.94438 20.9953 9.128 21.0451C9.46956 23.986 11.9674 26.2693 15 26.2693L15.3606 13.5841Z" fill="#F6DCCD"/>
<path d="M20.9132 16.6061V14.403L15 13.5841V26.2693C18.0326 26.2693 20.5305 23.986 20.872 21.0451C22.0556 20.9953 23 20.0204 23 18.8245C23 17.6426 22.0775 16.6766 20.9132 16.6061Z" fill="#F1CBBC"/>
<path d="M14.2289 21.5264H12.3539C12.3539 22.9855 13.5409 24.1725 14.9999 24.1725L15.7383 23L15 22.2975C14.5749 22.2975 14.2289 21.9516 14.2289 21.5264Z" fill="#DE9180"/>
<path d="M15.7711 21.5264C15.7711 21.9516 15.4252 22.2975 15 22.2975V24.1725C16.4591 24.1725 17.6461 22.9855 17.6461 21.5264H15.7711Z" fill="#D27F6C"/>
<path d="M15 9.26657H13.7304H12.984C10.8316 9.26657 9.0867 11.0114 9.0867 13.1639V15.3146H15L15.2398 12.2906L15 9.26657Z" fill="#A45D4E"/>
<path d="M15 9.26657V15.3145H18.4087C20.5612 15.3145 22.3061 13.5696 22.3061 11.4172V9.26657H15Z" fill="#8F5041"/>
<path d="M25.0972 20.5001H36.9023V29.0437H25.0972V20.5001Z" fill="#ECBD2C"/>
<path d="M30.9998 20.5001H36.9024V29.0437H30.9998V20.5001Z" fill="#E68F21"/>
<path d="M25.7662 27.6261L22.9363 30.5511V36.7334H30.9972L31.3606 32.6138L30.9972 27.6261H25.7662Z" fill="#73CBB1"/>
<path d="M38.8726 30.5511L36.0641 27.6261H31V36.7334H38.8726V30.5511Z" fill="#539499"/>
<path d="M31.4085 12.8589L25.0972 15.3729C25.0902 15.4904 25.0867 16.59 25.0867 16.59C23.9225 16.6605 23 17.6265 23 18.8084C23 20.0043 23.9444 20.9792 25.128 21.029C25.4696 23.97 27.9674 26.2533 31 26.2533L31.9624 17.7519L31.4085 12.8589Z" fill="#F6DCCD"/>
<path d="M36.9133 16.59C36.9133 16.59 36.9098 15.432 36.9028 15.3145L31 12.8589V26.2532C34.0326 26.2532 36.5305 23.9699 36.872 21.0289C38.0556 20.9792 39 20.0043 39 18.8084C39 17.6265 38.0775 16.6605 36.9133 16.59Z" fill="#F1CBBC"/>
<path d="M30.2289 21.5264H28.3539C28.3539 22.9855 29.5409 24.1725 30.9999 24.1725L31.7383 23L31 22.2975C30.5749 22.2975 30.2289 21.9516 30.2289 21.5264Z" fill="#E9A48C"/>
<path d="M31.7711 21.5264C31.7711 21.9516 31.4252 22.2975 31 22.2975V24.1725C32.4591 24.1725 33.6461 22.9855 33.6461 21.5264H31.7711Z" fill="#DE9180"/>
<path d="M30.9947 9.26657C27.7318 9.26657 25.0867 11.9117 25.0867 15.1746V15.3729H29.6893L31 14.3707L31.76 11.9514L30.9947 9.26657Z" fill="#ECBD2C"/>
<path d="M30.9948 9.26657L31 14.3707L32.3106 15.3729H36.9028V15.1746C36.9028 11.9117 34.2577 9.26657 30.9948 9.26657Z" fill="#E68F21"/>
<path d="M18.6329 28.1268C17.4446 29.3151 17.4446 31.2418 18.6329 32.4301L22.9362 36.7334L23.5369 31.6156L22.9362 28.1268C21.7479 26.9384 19.8213 26.9384 18.6329 28.1268Z" fill="#E06379"/>
<path d="M27.2396 28.1268C26.0513 26.9385 24.1246 26.9385 22.9363 28.1268V36.7334L27.2396 32.4301C28.4279 31.2418 28.4279 29.3151 27.2396 28.1268Z" fill="#C63C50"/>
</g>
</svg>
