<svg width="46" height="46" viewBox="0 0 46 46" fill="none" xmlns="http://www.w3.org/2000/svg">
<mask id="mask0" mask-type="alpha" maskUnits="userSpaceOnUse" x="0" y="0" width="46" height="46">
<circle cx="23" cy="23" r="23" fill="#0BCAD4"/>
</mask>
<g mask="url(#mask0)">
<circle cx="23" cy="23" r="23" fill="#0BCAD4"/>
<path d="M26.9641 33.652H24.8407V31.8942H26.9641C30.4097 31.8942 33.2129 29.137 33.2129 25.7479C33.2129 22.3589 30.4097 19.6017 26.9641 19.6017H25.8208V17.8439H26.9641C31.3951 17.8439 35 21.3896 35 25.7479C35 30.1063 31.3951 33.652 26.9641 33.652Z" fill="#D5E7FF"/>
<path d="M19.6222 28.4356H15.938V24.0073H19.6222V28.4356Z" fill="#EAF1FF"/>
<path d="M21.9184 28.4356H18.9282V24.0073H21.9184V28.4356Z" fill="#D5E7FF"/>
<path d="M16.0449 8.87891H19.6222V12.5594H16.0449V8.87891Z" fill="#6B66D0"/>
<path d="M18.9282 8.87891H21.8116V12.5594H18.9282V8.87891Z" fill="#524798"/>
<path d="M14.5006 11.6805H19.6221V25.7651H14.5006V11.6805Z" fill="#D5E7FF"/>
<path d="M18.9282 11.6805H23.3559V25.7651H18.9282V11.6805Z" fill="#ACCEFF"/>
<path d="M22.9437 38H10V31.8942H22.9437V38Z" fill="#6B66D0"/>
<path d="M34.641 38H18.9282V31.8942H34.641V38Z" fill="#524798"/>
<path d="M14.5006 8H19.6221V9.75781H14.5006V8Z" fill="#524798"/>
<path d="M18.9282 8H23.3559V9.75781H18.9282V8Z" fill="#2E2654"/>
<path d="M22.8213 21.8695C24.5881 21.8695 26.0204 20.4607 26.0204 18.7228C26.0204 16.985 24.5881 15.5762 22.8213 15.5762C21.0544 15.5762 19.6221 16.985 19.6221 18.7228C19.6221 20.4607 21.0544 21.8695 22.8213 21.8695Z" fill="#C63C50"/>
</g>
</svg>
