<svg width="17" height="21" viewBox="0 0 17 21" fill="none" xmlns="http://www.w3.org/2000/svg">
<path fill-rule="evenodd" clip-rule="evenodd" d="M14.75 14.0625V8.85417C14.75 5.65625 13.0521 2.97917 10.0625 2.27083V1.5625C10.0625 0.697917 9.3646 0 8.50002 0C7.63544 0 6.93752 0.697917 6.93752 1.5625V2.27083C3.95835 2.97917 2.25002 5.64583 2.25002 8.85417V14.0625L0.166687 16.1458V17.1875H16.8334V16.1458L14.75 14.0625ZM8.50002 20.3125C9.64585 20.3125 10.5834 19.375 10.5834 18.2292H6.41669C6.41669 19.375 7.35419 20.3125 8.50002 20.3125ZM4.33335 15.1042H12.6667V8.85417C12.6667 6.27083 11.0938 4.16667 8.50002 4.16667C5.90627 4.16667 4.33335 6.27083 4.33335 8.85417V15.1042Z" fill="black"/>
</svg>
