<svg width="18" height="18" viewBox="0 0 18 18" fill="none" xmlns="http://www.w3.org/2000/svg">
<path fill-rule="evenodd" clip-rule="evenodd" d="M12.22 11H13.01L18 16L16.51 17.49L11.51 12.5V11.71L11.24 11.43C10.1 12.41 8.61998 13 7.00998 13C3.41998 13 0.509979 10.09 0.509979 6.5C0.509979 2.91 3.41998 0 7.00998 0C10.6 0 13.51 2.91 13.51 6.5C13.51 8.11 12.92 9.59 11.94 10.73L12.22 11ZM2.50998 6.5C2.50998 8.99 4.51998 11 7.00998 11C9.49998 11 11.51 8.99 11.51 6.5C11.51 4.01 9.49998 2 7.00998 2C4.51998 2 2.50998 4.01 2.50998 6.5Z" fill="black"/>
</svg>
