<svg width="374" height="269" viewBox="0 0 374 269" fill="none" xmlns="http://www.w3.org/2000/svg">
<g clip-path="url(#clip0)">
<path opacity="0.1" d="M124.339 268.849C142.553 268.849 157.318 266.441 157.318 263.47C157.318 260.5 142.553 258.092 124.339 258.092C106.126 258.092 91.361 260.5 91.361 263.47C91.361 266.441 106.126 268.849 124.339 268.849Z" fill="#0BCAD4"/>
<path opacity="0.1" d="M303.606 269C326.334 269 344.758 266.592 344.758 263.622C344.758 260.651 326.334 258.243 303.606 258.243C280.878 258.243 262.454 260.651 262.454 263.622C262.454 266.592 280.878 269 303.606 269Z" fill="#0BCAD4"/>
<path opacity="0.1" d="M4.68414 116.227H39.0334V163.767H7.19882C7.1142 164.255 7.03298 164.746 6.94498 165.237H39.0334V203.577C38.9758 203.559 38.925 203.539 38.8709 203.518C37.9639 203.154 37.0636 202.769 36.1633 202.357L35.5879 202.092C34.6854 201.659 33.7829 201.201 32.8803 200.717C32.5656 200.549 32.2508 200.374 31.9395 200.195C26.929 197.345 22.3773 193.734 18.4421 189.486C18.327 189.373 18.2187 189.253 18.1037 189.143C17.5554 188.538 17.0172 187.926 16.496 187.301L15.9207 186.613C15.3047 185.847 14.709 185.06 14.1303 184.263C14.0456 184.146 13.9644 184.029 13.8764 183.919C11.5227 180.605 9.5683 177.017 8.05509 173.231C8.00771 173.118 7.9671 172.994 7.9231 172.887C7.45829 171.673 7.04651 170.447 6.68776 169.21C6.53207 168.691 6.38315 168.179 6.25454 167.64C6.20716 167.482 6.16655 167.327 6.12932 167.172C4.20692 159.553 3.98016 151.639 3.98016 143.779C3.98016 142.861 3.98016 141.94 3.98016 141.03C3.98016 137.851 4.01739 134.651 4.07155 131.455C4.07155 130.627 4.10539 129.802 4.12231 128.97C4.16969 126.86 4.23739 124.75 4.32538 122.64C4.34569 122.053 4.37276 121.468 4.40323 120.884C4.40323 120.547 4.42015 120.21 4.45399 119.874C4.53522 118.65 4.60291 117.437 4.68414 116.227Z" fill="#0BCAD4"/>
<path opacity="0.1" d="M39.0334 63.2962H20.1919C23.2547 58.4285 26.6011 53.7509 30.2134 49.2884C33.0124 45.7968 35.967 42.3945 39.0334 39.116V63.2962Z" fill="#0BCAD4"/>
<path opacity="0.1" d="M39.0334 64.7671V114.757H4.79245C4.79245 114.612 4.81614 114.464 4.82629 114.32C4.85675 113.925 4.88721 113.53 4.92106 113.138C4.95829 112.677 4.9989 112.213 5.0429 111.763C5.0869 111.313 5.13428 110.763 5.18505 110.265C5.23582 109.767 5.2832 109.261 5.34074 108.763C5.39827 108.265 5.44904 107.766 5.50996 107.272C5.57088 106.777 5.62504 106.275 5.68934 105.78C5.74011 105.368 5.79426 104.959 5.84841 104.546C5.92625 103.965 6.00748 103.381 6.09548 102.804C6.09548 102.718 6.11917 102.629 6.13271 102.546C6.75044 98.3196 7.59215 94.13 8.65416 89.9955C9.76582 85.6584 11.1854 81.4088 12.9017 77.2799C14.7258 72.9607 16.8616 68.7841 19.2916 64.7843L39.0334 64.7671Z" fill="#0BCAD4"/>
<path opacity="0.1" d="M47.234 116.224V163.766H120.6V116.224H47.234ZM47.234 165.234V206.061C47.6537 206.151 48.0699 206.237 48.4829 206.309C49.0447 206.419 49.6031 206.518 50.1751 206.604C50.2834 206.621 50.3951 206.639 50.5136 206.649C50.7369 206.687 50.9671 206.718 51.1905 206.749C51.7557 206.828 52.3175 206.893 52.8827 206.944C53.1501 206.972 53.4208 206.996 53.6916 207.017L54.3448 207.068C54.7002 207.096 55.0522 207.116 55.4008 207.127C55.6174 207.127 55.834 207.147 56.0573 207.154C56.2266 207.154 56.3958 207.154 56.5718 207.154C56.7478 207.154 56.9982 207.154 57.2115 207.154C57.5025 207.154 57.7936 207.154 58.0813 207.154H58.4705C58.7616 207.154 59.0526 207.154 59.3403 207.127H59.3606C59.5603 207.127 59.7634 207.127 59.9664 207.099C60.0228 207.103 60.0793 207.103 60.1357 207.099C60.3049 207.099 60.4741 207.099 60.6366 207.075H60.755L61.8888 206.986C62.2611 206.951 62.6368 206.907 63.0159 206.865L63.7875 206.773C66.9269 206.326 70.0314 205.655 73.078 204.766C79.9214 202.827 86.6159 200.116 93.456 198.129C102.3 195.569 112.071 194.311 120.617 197.442V165.234H47.234ZM120.6 63.2961V0.00342297C112.567 -0.0849413 104.557 0.869004 96.7626 2.84209C78.1852 7.58123 61.5165 17.8602 47.234 30.9882V63.2927H50.9163V64.7601H47.234V114.756H120.6V64.7636H66.0348V63.2961H120.6ZM214.834 41.9168C210.238 41.7518 205.669 40.274 201.536 37.9921C193.634 33.6276 187.322 26.8883 180.268 21.2007C165.613 9.35454 147.439 2.20631 128.793 0.433004V63.2961H233.527L233.787 63.0178L214.834 41.9168ZM224.375 40.1984L234.491 51.4706V37.2429C231.103 37.6691 228.135 38.6829 224.388 40.1847L224.375 40.1984ZM234.491 216.199V165.234H212.935C212.878 165.017 212.82 164.797 212.753 164.578C212.817 164.797 212.871 165.017 212.932 165.234H128.807V202.092C129.606 202.693 130.394 203.326 131.176 203.968C132.019 204.656 132.851 205.381 133.687 206.092L134.53 206.8C134.933 207.144 135.339 207.487 135.749 207.811C136.561 208.48 137.381 209.139 138.209 209.79C138.619 210.134 139.038 210.443 139.455 210.766C146.064 215.897 153.035 220.527 160.313 224.619C161.945 225.536 163.591 226.43 165.251 227.303C166.358 227.877 167.471 228.448 168.588 229.001C170.267 229.833 171.959 230.634 173.665 231.407C189.392 238.575 206.021 243.494 223.079 246.023C226.867 246.591 230.67 247.038 234.488 247.363V216.196H234.826L234.491 216.199ZM128.807 64.7636V114.756H234.505V64.7636H128.807ZM128.807 116.224V163.766H234.505V116.224H128.807ZM242.709 37.1811V53.0515L255.621 38.6657C251.343 37.9646 247.039 37.464 242.709 37.1639V37.1811ZM242.709 116.241V163.766H345.513V116.224L242.709 116.241ZM345.137 219.973L345.499 165.234H242.709V247.909C249.33 248.192 255.962 248.111 262.576 247.669H262.691C265.85 247.467 268.994 247.174 272.123 246.789H272.194C288.89 244.816 305.216 240.393 320.66 233.658L345.137 219.973ZM365.336 124.053C364.95 123.128 364.547 122.211 364.138 121.303C363.373 119.585 362.564 117.915 361.731 116.245H353.71V163.766H373.99C373.98 150.309 370.626 136.562 365.346 124.035L365.336 124.053ZM353.71 165.251V212.333C359.423 206.773 364.249 200.411 367.725 193.139C371.905 184.383 373.817 174.901 373.973 165.244L353.71 165.251ZM353.71 102.388V114.76H360.98C358.781 110.501 356.357 106.365 353.72 102.371L353.71 102.388ZM283.989 46.5081C283.455 46.3019 282.92 46.0923 282.382 45.8895C276.706 43.7613 270.907 41.9915 265.016 40.5902L245.257 62.6088L244.878 63.0178L245.132 63.2996H315.455C305.661 56.4539 295.102 50.8117 284 46.4909L283.989 46.5081ZM317.516 64.7808H244.151L242.709 66.121V114.756H255.346H255.367H345.526V91.1982C337.37 81.1824 327.957 72.2952 317.526 64.7636L317.516 64.7808Z" fill="#0BCAD4"/>
<path opacity="0.1" d="M39.0334 89.9817V114.756H4.79245C4.79245 114.612 4.81614 114.464 4.82629 114.32C4.85675 113.925 4.88721 113.53 4.92106 113.138C4.95829 112.677 4.9989 112.213 5.0429 111.763C5.0869 111.313 5.13428 110.763 5.18505 110.265C5.23582 109.766 5.2832 109.261 5.34074 108.763C5.39827 108.265 5.44904 107.766 5.50996 107.271C5.57088 106.777 5.62504 106.275 5.68934 105.78C5.74011 105.368 5.79426 104.959 5.84841 104.546C5.92625 103.965 6.00748 103.381 6.09548 102.804C6.09548 102.718 6.11917 102.629 6.13271 102.546C6.75044 98.3195 7.59215 94.1299 8.65416 89.9954L39.0334 89.9817Z" fill="#0BCAD4"/>
<path opacity="0.1" d="M4.68414 116.227H39.0334V163.767H7.19882C7.1142 164.255 7.03298 164.746 6.94498 165.237H39.0334V203.577C38.9758 203.559 38.925 203.539 38.8709 203.518C37.9639 203.154 37.0636 202.769 36.1633 202.357L35.5879 202.092C34.6854 201.659 33.7829 201.201 32.8803 200.717C32.5656 200.549 32.2508 200.374 31.9395 200.195C26.929 197.345 22.3773 193.734 18.4421 189.486C18.327 189.373 18.2187 189.253 18.1037 189.143C17.5554 188.538 17.0172 187.926 16.496 187.301L15.9207 186.613C15.3047 185.847 14.709 185.06 14.1303 184.263C14.0456 184.146 13.9644 184.029 13.8764 183.919C11.5227 180.605 9.5683 177.017 8.05509 173.231C8.00771 173.118 7.9671 172.994 7.9231 172.887C7.45829 171.673 7.04651 170.447 6.68776 169.21C6.53207 168.691 6.38315 168.179 6.25454 167.64C6.20716 167.482 6.16655 167.327 6.12932 167.172C4.20692 159.553 3.98016 151.639 3.98016 143.779C3.98016 142.861 3.98016 141.94 3.98016 141.03C3.98016 137.851 4.01739 134.651 4.07155 131.455C4.07155 130.627 4.10539 129.802 4.12231 128.97C4.16969 126.86 4.23739 124.75 4.32538 122.64C4.34569 122.053 4.37276 121.468 4.40323 120.884C4.40323 120.547 4.42015 120.21 4.45399 119.874C4.53522 118.65 4.60291 117.437 4.68414 116.227Z" fill="#0BCAD4"/>
<path opacity="0.1" d="M73.061 71.9222V114.757H47.234V71.9222H50.9163V57.4196H66.0315V71.9222H73.061Z" fill="#0BCAD4"/>
<path opacity="0.1" d="M73.061 116.224H47.2374V163.763H73.061V116.224Z" fill="#0BCAD4"/>
<path opacity="0.1" d="M47.234 165.237H73.061V204.759C70.0145 205.648 66.91 206.317 63.7706 206.762L62.9989 206.859C62.6199 206.903 62.2442 206.941 61.8719 206.979C61.4996 207.017 61.1138 207.044 60.7381 207.068H60.6196C60.4572 207.068 60.2812 207.089 60.1221 207.092H59.9495C59.7464 207.092 59.5434 207.113 59.3403 207.12C59.0526 207.137 58.7649 207.14 58.4705 207.144C58.3453 207.144 58.2268 207.144 58.1016 207.144C57.8105 207.144 57.5228 207.144 57.2318 207.144H56.5921C56.4195 207.144 56.2536 207.144 56.0743 207.144L55.4211 207.12C55.0826 207.12 54.7171 207.082 54.3651 207.058L53.7153 207.01L52.9064 206.934C52.3378 206.883 51.7726 206.817 51.2141 206.738L50.5372 206.642L50.1988 206.594C49.6336 206.505 49.0751 206.408 48.5065 206.298C48.0903 206.226 47.6773 206.137 47.2577 206.051L47.234 165.237Z" fill="#0BCAD4"/>
<path opacity="0.1" d="M234.505 66.8633H213.21V114.753H234.505V66.8633Z" fill="#0BCAD4"/>
<path opacity="0.1" d="M234.508 116.224V163.767H128.807V143.26H185.108V155.357H213.21V116.224H234.508Z" fill="#0BCAD4"/>
<path opacity="0.1" d="M234.843 216.21H234.505V247.397C230.692 247.07 226.89 246.624 223.099 246.06C206.033 243.523 189.397 238.594 173.665 231.413C169.123 229.338 164.674 227.072 160.317 224.616C153.039 220.522 146.066 215.891 139.455 210.763C137.794 209.47 136.155 208.148 134.537 206.797C133.417 205.858 132.303 204.896 131.176 203.961C130.394 203.319 129.606 202.686 128.807 202.082V165.237H212.929C212.871 165.017 212.814 164.797 212.753 164.581C212.817 164.797 212.878 165.017 212.935 165.237H234.505V216.189C234.62 216.192 234.731 216.203 234.843 216.21Z" fill="#0BCAD4"/>
<path opacity="0.1" d="M290.044 63.2961H276.168V58.9178H282.389V45.8757C282.928 46.0751 283.465 46.2801 284 46.4909V58.9178H290.044V63.2961Z" fill="#0BCAD4"/>
<path opacity="0.1" d="M323.476 114.757H255.353C255.353 114.757 255.353 114.757 255.377 114.774L255.346 114.757H242.709V66.8669H246.29V102.264H262.654V81.3008H276.171V64.7671H290.048V81.3145H303.565V102.278H323.476V114.757Z" fill="#0BCAD4"/>
<path opacity="0.1" d="M242.709 116.224V163.767H323.476V116.224H242.709ZM345.401 219.729L345.513 182.098H323.476V165.258H242.709V247.909C249.331 248.192 255.962 248.112 262.576 247.669H262.691C265.85 247.467 268.994 247.174 272.123 246.789H272.194C288.89 244.816 305.216 240.393 320.66 233.658" fill="#0BCAD4"/>
<path opacity="0.1" d="M355.145 165.237H373.986C373.821 174.891 371.912 184.373 367.735 193.129C364.259 200.405 359.43 206.766 353.724 212.323V182.08H355.145V165.237Z" fill="#0BCAD4"/>
<path opacity="0.1" d="M373.997 163.766H355.145V124.035H365.346C370.626 136.562 373.98 150.309 373.997 163.766Z" fill="#0BCAD4"/>
<path opacity="0.1" d="M234.508 80.1769H223.099V95.1916H234.508V80.1769Z" fill="#0BCAD4"/>
<path opacity="0.1" d="M234.508 111.299H223.099V114.756H234.508V111.299Z" fill="#0BCAD4"/>
<path opacity="0.1" d="M234.508 116.224H223.099V126.311H234.508V116.224Z" fill="#0BCAD4"/>
<path opacity="0.1" d="M234.508 142.422H223.099V157.436H234.508V142.422Z" fill="#0BCAD4"/>
<path opacity="0.1" d="M234.508 173.544H223.099V188.558H234.508V173.544Z" fill="#0BCAD4"/>
<path opacity="0.1" d="M234.505 216.189C234.62 216.189 234.731 216.189 234.843 216.21H234.505V219.698H223.099V204.666H234.505V216.189Z" fill="#0BCAD4"/>
<path opacity="0.1" d="M234.505 235.781V247.38C230.692 247.052 226.89 246.607 223.099 246.043V235.781H234.505Z" fill="#0BCAD4"/>
<path opacity="0.1" d="M177.703 162.663H128.807V163.766H177.703V162.663Z" fill="#0BCAD4"/>
<path opacity="0.1" d="M177.703 165.234H128.807V169.461H177.703V165.234Z" fill="#0BCAD4"/>
<path opacity="0.1" d="M177.703 183.318H128.807V190.115H177.703V183.318Z" fill="#0BCAD4"/>
<path opacity="0.1" d="M177.699 203.972V210.769H139.455C137.794 209.482 136.154 208.16 134.534 206.804C133.413 205.865 132.303 204.903 131.173 203.972H177.699Z" fill="#0BCAD4"/>
<path opacity="0.1" d="M177.699 224.623V231.413H173.662C169.124 229.335 164.676 227.068 160.317 224.612L177.699 224.623Z" fill="#0BCAD4"/>
<path opacity="0.1" d="M272.205 120.833H262.579V130.606H272.205V120.833Z" fill="#0BCAD4"/>
<path opacity="0.1" d="M63.7943 75.2935H54.1688V85.0673H63.7943V75.2935Z" fill="#0BCAD4"/>
<path opacity="0.1" d="M63.7943 97.996H54.1688V107.77H63.7943V97.996Z" fill="#0BCAD4"/>
<path opacity="0.1" d="M63.7943 120.698H54.1688V130.472H63.7943V120.698Z" fill="#0BCAD4"/>
<path opacity="0.1" d="M63.7943 143.397H54.1688V153.171H63.7943V143.397Z" fill="#0BCAD4"/>
<path opacity="0.1" d="M63.7943 166.1H54.1688V175.874H63.7943V166.1Z" fill="#0BCAD4"/>
<path opacity="0.1" d="M63.7943 188.802H54.1688V198.576H63.7943V188.802Z" fill="#0BCAD4"/>
<path opacity="0.1" d="M308.95 120.833H299.325V130.606H308.95V120.833Z" fill="#0BCAD4"/>
<path opacity="0.1" d="M272.205 144.941H262.579V154.714H272.205V144.941Z" fill="#0BCAD4"/>
<path opacity="0.1" d="M308.95 144.941H299.325V154.714H308.95V144.941Z" fill="#0BCAD4"/>
<path opacity="0.1" d="M272.205 169.045H262.579V178.819H272.205V169.045Z" fill="#0BCAD4"/>
<path opacity="0.1" d="M308.95 169.045H299.325V178.819H308.95V169.045Z" fill="#0BCAD4"/>
<path opacity="0.1" d="M272.205 193.153H262.579V202.927H272.205V193.153Z" fill="#0BCAD4"/>
<path opacity="0.1" d="M308.95 193.153H299.325V202.927H308.95V193.153Z" fill="#0BCAD4"/>
<path opacity="0.1" d="M272.205 217.261H262.579V227.035H272.205V217.261Z" fill="#0BCAD4"/>
<path opacity="0.1" d="M308.95 217.261H299.325V227.035H308.95V217.261Z" fill="#0BCAD4"/>
<path opacity="0.1" d="M262.579 247.669V241.366H272.201V246.772L262.579 247.669Z" fill="#0BCAD4"/>
<path opacity="0.1" d="M6.09207 102.539V108.131H39.0333V102.539H6.09207ZM9.37503 107.78H6.68774V102.883H9.39534L9.37503 107.78ZM12.6546 107.78H9.94701V102.883H12.6546V107.78ZM15.9274 107.78H13.2198V102.883H15.9274V107.78ZM19.207 107.78H16.5028V102.883H19.2104L19.207 107.78ZM22.4832 107.78H19.7756V102.883H22.4832V107.78ZM25.7627 107.78H23.0551V102.883H25.7627V107.78ZM29.0423 107.78H26.3347V102.883H29.0423V107.78ZM32.3185 107.78H29.6109V102.883H32.3185V107.78ZM35.5947 107.78H32.8871V102.883H35.5947V107.78ZM38.8709 107.78H36.1633V102.883H38.8709V107.78Z" fill="#0BCAD4"/>
<path opacity="0.1" d="M6.09207 118.808V124.4H39.0333V118.808H6.09207ZM9.37503 124.046H6.68774V119.162H9.39534L9.37503 124.046ZM12.6546 124.046H9.94701V119.162H12.6546V124.046ZM15.9274 124.046H13.2198V119.162H15.9274V124.046ZM19.207 124.046H16.5028V119.162H19.2104L19.207 124.046ZM22.4832 124.046H19.7756V119.162H22.4832V124.046ZM25.7627 124.046H23.0551V119.162H25.7627V124.046ZM29.0423 124.046H26.3347V119.162H29.0423V124.046ZM32.3185 124.046H29.6109V119.162H32.3185V124.046ZM35.5947 124.046H32.8871V119.162H35.5947V124.046ZM38.8709 124.046H36.1633V119.162H38.8709V124.046Z" fill="#0BCAD4"/>
<path opacity="0.1" d="M6.09207 135.084V140.686H39.0333V135.084H6.09207ZM9.37503 140.322H6.68774V135.435H9.39534L9.37503 140.322ZM12.6546 140.322H9.94701V135.435H12.6546V140.322ZM15.9274 140.322H13.2198V135.435H15.9274V140.322ZM19.207 140.322H16.5028V135.435H19.2104L19.207 140.322ZM22.4832 140.322H19.7756V135.435H22.4832V140.322ZM25.7627 140.322H23.0551V135.435H25.7627V140.322ZM29.0423 140.322H26.3347V135.435H29.0423V140.322ZM32.3185 140.322H29.6109V135.435H32.3185V140.322ZM35.5947 140.322H32.8871V135.435H35.5947V140.322ZM38.8709 140.322H36.1633V135.435H38.8709V140.322Z" fill="#0BCAD4"/>
<path opacity="0.1" d="M6.09207 151.36V156.945H39.0333V151.36H6.09207ZM9.37503 156.598H6.68774V151.707H9.39534L9.37503 156.598ZM12.6546 156.598H9.94701V151.707H12.6546V156.598ZM15.9274 156.598H13.2198V151.707H15.9274V156.598ZM19.207 156.598H16.5028V151.707H19.2104L19.207 156.598ZM22.4832 156.598H19.7756V151.707H22.4832V156.598ZM25.7627 156.598H23.0551V151.707H25.7627V156.598ZM29.0423 156.598H26.3347V151.707H29.0423V156.598ZM32.3185 156.598H29.6109V151.707H32.3185V156.598ZM35.5947 156.598H32.8871V151.707H35.5947V156.598ZM38.8709 156.598H36.1633V151.707H38.8709V156.598Z" fill="#0BCAD4"/>
<path opacity="0.1" d="M6.23425 167.633C6.36625 168.158 6.51516 168.684 6.67085 169.203V167.983H9.37844V172.87H7.92988C7.97388 172.983 8.01788 173.107 8.06188 173.214H39.0334V167.633H6.23425ZM12.6648 172.87H9.95719V167.983H12.6648V172.87ZM15.9376 172.87H13.23V167.983H15.9376V172.87ZM19.2172 172.87H16.5028V167.983H19.2104L19.2172 172.87ZM22.4934 172.87H19.7858V167.983H22.4934V172.87ZM25.7729 172.87H23.0653V167.983H25.7729V172.87ZM29.0525 172.87H26.3449V167.983H29.0525V172.87ZM32.3287 172.87H29.6211V167.983H32.3287V172.87ZM35.6049 172.87H32.8973V167.983H35.6049V172.87ZM38.8811 172.87H36.1735V167.983H38.8811V172.87Z" fill="#0BCAD4"/>
<path opacity="0.1" d="M13.8832 183.909C13.9678 184.019 14.049 184.142 14.137 184.252H15.9274V186.6C16.1203 186.833 16.3099 187.067 16.5062 187.287V184.239H19.2138V189.143H18.1172C18.2255 189.256 18.3304 189.376 18.4556 189.486H39.0435V183.909H13.8832ZM22.4832 189.143H19.7756V184.259H22.4832V189.143ZM25.7627 189.143H23.0552V184.259H25.7627V189.143ZM29.0423 189.143H26.3347V184.259H29.0423V189.143ZM32.3185 189.143H29.6109V184.259H32.3185V189.143ZM35.5947 189.143H32.8871V184.259H35.5947V189.143ZM38.8709 189.143H36.1633V184.259H38.8709V189.143Z" fill="#0BCAD4"/>
<path opacity="0.1" d="M31.953 200.181C32.261 200.36 32.5757 200.525 32.8939 200.704V200.532H35.6015V202.078L36.1769 202.35V200.532H38.8844V203.504C38.9364 203.531 38.9908 203.551 39.0469 203.566V200.181H31.953Z" fill="#0BCAD4"/>
<path opacity="0.1" d="M255.353 114.756H255.374H255.353ZM234.505 216.186H234.843H234.505ZM212.753 164.577C212.817 164.797 212.871 165.017 212.932 165.234C212.878 165.017 212.82 164.797 212.753 164.577ZM255.353 114.746H255.374H255.353ZM50.9299 63.2858V64.7532H66.0484V63.2858H50.9299ZM234.505 216.186H234.843H234.505ZM212.753 164.577C212.817 164.797 212.871 165.017 212.932 165.234C212.878 165.017 212.82 164.797 212.753 164.577ZM255.353 114.746H255.374H255.353ZM234.505 216.175H234.843H234.505ZM212.753 164.577C212.817 164.797 212.871 165.017 212.932 165.234C212.878 165.017 212.82 164.797 212.753 164.577Z" fill="#0BCAD4"/>
<path d="M156.228 130.479C156.228 130.479 154.895 130.29 154.895 128.317C154.895 126.345 153.94 122.661 153.94 122.661C153.94 122.643 153.114 116.244 151.974 115.227C150.833 114.21 149.368 108.237 149.368 108.237C149.368 108.237 149.117 104.996 148.606 104.299C148.095 103.601 147.405 101.893 146.386 99.4564C145.367 97.0199 141.12 95.3325 141.12 95.3325C141.12 95.3325 133.44 90.8098 131.264 89.3355C131.066 89.2144 130.881 89.0727 130.713 88.9128C130.333 88.4076 128.682 88.3973 128.682 88.3973C128.509 87.2907 128.343 86.0191 128.289 84.8679C128.289 84.7442 128.289 84.6204 128.272 84.4967C130.699 83.0402 132.527 80.7437 133.42 78.029C133.461 77.8984 133.495 77.7609 133.532 77.6303C133.677 77.5817 133.811 77.5028 133.925 77.3986C134.038 77.2945 134.129 77.1674 134.192 77.0255C134.388 76.5821 134.391 76.0632 134.635 75.6508C134.919 75.1628 135.461 74.9016 135.887 74.5339C136.964 73.606 137.241 72.0423 137.19 70.6195C137.157 69.4683 136.974 68.3067 137.045 67.1623L137.065 66.8736C137.086 66.7018 137.109 66.5299 137.14 66.365C137.305 65.5127 137.668 64.7085 137.871 63.8631C138.074 63.0177 138.094 62.0657 137.62 61.3372C136.926 60.2684 135.481 60.0553 134.212 59.9453C132.774 59.8216 131.488 59.9831 130.567 58.77C130.136 58.1359 129.651 57.5414 129.118 56.9932C128.929 56.8145 127.088 55.6736 127.088 55.598C125.291 54.7529 123.254 54.5942 121.351 55.1512C120.397 55.433 119.496 55.8935 118.528 56.1238C116.44 56.6255 114.037 56.0825 112.264 57.2957C111.275 57.983 110.683 59.0759 110.128 60.1412C109.677 61.0187 109.219 61.895 108.754 62.7702C108.006 64.2102 107.244 65.6742 106.93 67.2688C106.863 67.6158 106.823 67.9673 106.808 68.3204V68.3376C106.808 68.4648 106.808 68.5919 106.808 68.7191V68.8806C106.808 69.0009 106.808 69.1177 106.828 69.2243C106.848 69.3308 106.845 69.3652 106.855 69.4373C106.865 69.5095 106.882 69.671 106.903 69.781C106.923 69.891 106.964 70.0834 107.004 70.2346C107.021 70.2999 107.045 70.3618 107.065 70.4237C107.099 70.5405 107.14 70.6539 107.184 70.7673C107.207 70.8257 107.231 70.8876 107.258 70.946C107.309 71.0663 107.37 71.1832 107.431 71.2897C107.458 71.3378 107.478 71.3825 107.505 71.4272C107.599 71.587 107.703 71.7408 107.816 71.8877C108.541 72.8053 109.607 73.3895 110.395 74.2486C110.395 74.283 110.395 74.3174 110.395 74.3483C110.395 74.4445 110.395 74.5373 110.395 74.6335C110.437 76.5497 110.939 78.4264 111.858 80.1004C112.777 81.7745 114.085 83.1952 115.668 84.239C115.668 84.3696 115.685 84.5036 115.692 84.6342C115.758 85.6543 115.746 86.6781 115.655 87.6962C115.517 87.5314 115.345 87.4001 115.15 87.3121C114.956 87.2241 114.744 87.1815 114.531 87.1876C114.386 87.1804 114.24 87.1931 114.098 87.2254L114.068 87.2014V87.2323C113.323 87.4179 112.406 88.2049 111.529 90.4421C111.529 90.4421 108.862 93.4939 106.832 93.3667C104.801 93.2395 99.6598 96.5422 99.6598 96.5422C99.6598 96.5422 94.644 99.8482 93.5677 103.216C92.9661 105.126 92.2449 106.995 91.4084 108.811L85.208 121.784L84.064 132.077C84.064 132.077 84.6969 136.655 84.5717 137.352C84.4465 138.05 87.1744 144.342 87.1744 144.342C87.1744 144.342 96.1873 160.423 99.8696 161.247L100.134 161.058C100.291 161.142 100.458 161.205 100.631 161.247L101.389 160.704C101.435 161.31 101.415 161.918 101.332 162.519C100.824 164.107 101.521 174.468 102.408 176.499C103.295 178.53 102.98 205.161 102.98 205.161L102.855 207.511C102.855 207.511 102.855 207.587 102.885 207.718L102.855 208.274L102.946 208.322C103.041 209.068 103.01 209.825 102.855 210.56C102.537 211.591 102.408 214.505 102.408 214.505C102.408 214.505 99.873 230.96 101.074 234.266C102.276 237.572 103.298 241.194 103.298 241.194C103.298 241.194 104.567 245.318 103.359 246.023C102.151 246.727 98.7155 247.909 99.4229 249.628C100.066 251.215 102.506 255.47 102.868 256.092L102.838 256.418L102.34 261.893C102.421 262.616 102.614 263.321 102.912 263.982C103.457 265.175 104.517 266.412 106.53 266.278C106.869 266.254 107.261 266.213 107.64 266.161C111.326 265.659 115.865 263.989 115.865 263.989C115.629 263.837 115.413 263.656 115.222 263.45C115.041 263.272 114.897 263.058 114.8 262.821C114.703 262.585 114.654 262.331 114.656 262.075C114.711 261.078 112.873 256.329 112.416 255.161C112.345 254.992 112.308 254.896 112.308 254.896C112.308 254.896 116.498 250.449 115.8 246.507C115.8 246.507 111.164 243.758 112.69 242.249C114.216 240.74 116.944 236.407 116.944 236.407C116.944 236.407 117.07 220.203 116.944 217.784C116.814 216.104 116.892 214.415 117.178 212.756C117.229 212.505 117.29 212.261 117.354 212.02C119.465 212.34 121.596 212.505 123.73 212.512C124.509 212.512 125.301 212.512 126.099 212.464C126.099 212.693 126.11 212.94 126.13 213.206C126.306 217.22 126.634 224.258 126.902 226.873C127.281 230.623 129.376 240.727 129.376 240.727C129.376 240.727 125.379 243.332 130.073 249.751C130.073 249.751 130.073 252.078 129.761 252.415C129.429 253.516 129.161 254.636 128.959 255.769C128.763 256.979 128.682 258.202 129 258.838C129.761 260.357 134.331 260.233 134.331 260.233L134.442 260.212C135.305 260.122 136.177 260.206 137.007 260.46C137.837 260.715 138.609 261.134 139.279 261.694C141.015 263.109 147.605 262.487 151.172 262.037C152.57 261.859 153.504 261.694 153.504 261.694C153.549 261.533 153.565 261.365 153.551 261.199C153.514 260.309 152.827 258.357 148.17 256.614C148.17 256.614 143.79 253.624 143.851 251.019H143.76H143.252C143.621 250.999 143.858 251.019 143.858 251.019C143.858 251.019 142.142 244.662 142.843 244.146C143.543 243.631 141.445 236.585 141.445 236.585C141.445 236.585 140.243 224.763 140.179 223.935C140.182 223.224 140.288 222.518 140.494 221.839L140.179 215.357C140.179 215.357 140.118 213.203 140.179 212.501C140.169 211.893 140.12 211.286 140.033 210.683C140.003 210.443 139.972 210.192 139.939 209.945C141.58 209.522 142.646 209.13 142.646 209.13L142.457 186.569C143.851 183.819 144.108 177.788 144.102 173.509C144.102 170.76 143.98 168.725 143.98 168.725L145.885 165.567C145.885 165.567 146.325 161.787 145.628 160.959C145.32 160.584 145.459 160.196 145.713 159.876C145.844 159.77 145.984 159.673 146.129 159.587C146.129 159.587 146.109 159.557 146.085 159.512C146.218 159.399 146.359 159.297 146.508 159.206C146.508 159.206 145.831 158.141 146.437 157.69C147.005 158.082 147.513 158.378 147.899 158.618C147.872 158.869 147.845 159.014 147.845 159.014L148.007 158.67C148.38 158.883 148.606 159.014 148.606 159.014C148.606 159.014 151.591 152.975 151.527 152.085C151.463 151.195 153.558 147.446 153.558 147.446C153.558 147.446 153.812 145.477 154.956 144.652C156.1 143.827 155.842 137.851 155.842 137.851C155.842 137.851 156.161 134.737 156.922 133.465C157.684 132.194 156.228 130.479 156.228 130.479ZM99.1115 127.829L99.169 129.269C98.8306 128.716 98.5869 128.317 98.5869 128.317L99.1115 127.829Z" fill="url(#paint0_linear)"/>
<path d="M148.769 156.405L148.038 159.567C148.038 159.567 142.183 156.532 141.127 152.676C140.071 148.82 142.893 147.356 142.893 147.356L148.349 149.704L148.769 156.405Z" fill="white"/>
<path opacity="0.1" d="M148.769 156.405L148.038 159.567C148.038 159.567 142.183 156.532 141.127 152.676C140.071 148.82 142.893 147.356 142.893 147.356L148.349 149.704L148.769 156.405Z" fill="black"/>
<path d="M115.909 264.01C115.909 264.01 110.494 266.031 106.771 266.285C104.794 266.419 103.755 265.189 103.22 264.003C102.928 263.344 102.74 262.642 102.662 261.924L103.146 256.477L103.403 253.576L111.313 251.49L112.433 254.968L112.538 255.233C112.988 256.394 114.792 261.12 114.738 262.106C114.735 262.359 114.783 262.609 114.879 262.842C114.974 263.076 115.115 263.287 115.293 263.464C115.474 263.672 115.681 263.855 115.909 264.01Z" fill="white"/>
<path d="M152.898 261.24C152.911 261.405 152.895 261.572 152.85 261.731C152.85 261.731 141.269 263.694 138.9 261.731C138.232 261.158 137.453 260.733 136.614 260.483C135.774 260.234 134.893 260.165 134.026 260.281C134.026 260.281 129.545 260.405 128.797 258.907C128.486 258.278 128.567 257.058 128.76 255.855C128.956 254.728 129.219 253.613 129.545 252.518L129.724 252.373L130.79 251.504L143.272 251.129H143.367C143.306 253.721 147.605 256.693 147.605 256.693C152.17 258.412 152.844 260.353 152.898 261.24Z" fill="white"/>
<path opacity="0.1" d="M152.898 261.24C152.91 261.406 152.893 261.572 152.847 261.732C152.847 261.732 141.269 263.694 138.9 261.732C138.232 261.159 137.454 260.734 136.615 260.484C135.777 260.234 134.896 260.165 134.029 260.281C134.029 260.281 129.545 260.405 128.8 258.907C128.489 258.274 128.567 257.058 128.76 255.855C130.486 256.03 133.21 256.467 134.28 257.508C135.898 259.092 138.639 260.673 140.321 260.797C141.638 260.883 149.513 261.137 152.898 261.24Z" fill="black"/>
<path opacity="0.1" d="M115.909 264.01C115.909 264.01 110.494 266.031 106.771 266.285C104.794 266.419 103.755 265.189 103.224 264C104.601 264.47 106.513 264.965 107.519 264.512C108.71 263.976 112.934 263.628 115.303 263.481C115.483 263.681 115.687 263.859 115.909 264.01Z" fill="black"/>
<path d="M123.944 101.165C119.476 99.4015 113.729 93.5764 115.164 90.8546C115.483 90.1678 115.672 89.4265 115.723 88.6689C115.815 87.6405 115.828 86.6064 115.763 85.5759C115.663 83.8882 115.463 82.2081 115.164 80.5447C115.164 80.5447 129.112 80.8643 128.299 82.9503C128.062 83.5621 128.025 84.624 128.09 85.813C128.154 87.0021 128.323 88.3459 128.499 89.4834C128.743 91.0436 128.986 92.2327 128.986 92.2327C128.986 92.2327 128.134 93.4458 127.633 93.5111C127.132 93.5764 130.354 103.677 123.944 101.165Z" fill="#CF6F80"/>
<path opacity="0.1" d="M112.528 255.233L112.423 255.35C108.253 250.229 103.21 256.611 103.21 256.611L103.136 256.477L103.393 253.576L111.302 251.49L112.423 254.968L112.528 255.233Z" fill="black"/>
<path opacity="0.1" d="M143.37 251.49C143.37 251.49 140.324 251.425 138.7 252.882C137.075 254.339 129.223 253.198 129.562 252.882C129.662 252.725 129.723 252.546 129.738 252.36L130.804 251.49L143.286 251.116C143.333 251.346 143.37 251.49 143.37 251.49Z" fill="black"/>
<path d="M117.716 211.278C117.489 211.848 117.317 212.438 117.202 213.041C116.919 214.693 116.841 216.374 116.968 218.045C117.093 220.451 116.968 236.572 116.968 236.572C116.968 236.572 114.291 240.871 112.798 242.387C111.306 243.902 115.844 246.624 115.844 246.624C116.521 250.542 112.419 254.968 112.419 254.968C108.25 249.848 103.207 256.233 103.207 256.233C103.207 256.233 100.465 251.422 99.7816 249.703C99.098 247.985 102.459 246.796 103.64 246.098C104.821 245.401 103.582 241.287 103.582 241.287C103.582 241.287 102.584 237.682 101.399 234.393C100.215 231.104 102.706 214.732 102.706 214.732C102.706 214.732 102.834 211.825 103.142 210.811C103.298 210.079 103.329 209.326 103.234 208.584C103.213 208.333 103.19 208.123 103.173 207.982C103.156 207.841 103.142 207.776 103.142 207.776L103.19 207.694L104.882 204.491C104.882 204.491 118.528 209.261 117.716 211.278Z" fill="#0BCAD4"/>
<path d="M143.37 251.112C143.37 251.112 140.324 251.047 138.7 252.487C137.075 253.927 129.223 252.803 129.562 252.487C129.9 252.171 129.873 249.83 129.873 249.83C125.267 243.445 129.196 240.854 129.196 240.854C129.196 240.854 127.139 230.802 126.766 227.073C126.506 224.468 126.184 217.467 126.011 213.471C125.937 211.752 125.893 210.57 125.893 210.57L129.657 209.8L130.141 209.701L139.218 207.852C139.218 207.852 139.468 209.57 139.637 210.976C139.722 211.576 139.769 212.181 139.78 212.787C139.719 213.474 139.78 215.625 139.78 215.625L140.088 222.076C139.886 222.753 139.783 223.455 139.78 224.162C139.84 224.983 141.022 236.744 141.022 236.744C141.022 236.744 143.076 243.761 142.375 244.266C141.675 244.772 143.37 251.112 143.37 251.112Z" fill="#0BCAD4"/>
<path opacity="0.1" d="M128.299 82.9503C128.062 83.5621 128.025 84.624 128.09 85.813C126.221 86.9554 124.074 87.5394 121.893 87.4981C119.713 87.4568 117.588 86.7917 115.763 85.5794C115.663 83.8905 115.463 82.2092 115.164 80.5447C115.164 80.5447 129.112 80.8574 128.299 82.9503Z" fill="black"/>
<path d="M133.691 75.3553C133.694 76.5937 133.502 77.8246 133.122 79.0016C132.274 81.6387 130.536 83.8866 128.213 85.3479C125.891 86.8092 123.135 87.3899 120.432 86.9872C117.728 86.5846 115.253 85.2246 113.441 83.1476C111.63 81.0707 110.6 78.4104 110.534 75.6371C110.534 75.5409 110.534 75.4515 110.534 75.3553C110.508 73.7942 110.788 72.2435 111.358 70.7935C111.928 69.3435 112.777 68.0233 113.855 66.9099C114.933 65.7965 116.218 64.9122 117.636 64.3086C119.054 63.7049 120.577 63.394 122.114 63.394C123.652 63.394 125.174 63.7049 126.592 64.3086C128.01 64.9122 129.296 65.7965 130.373 66.9099C131.451 68.0233 132.3 69.3435 132.87 70.7935C133.44 72.2435 133.721 73.7942 133.694 75.3553H133.691Z" fill="#CF6F80"/>
<path opacity="0.1" d="M123.944 101.165C119.476 99.4016 113.729 93.5765 115.164 90.8547C115.483 90.1678 115.672 89.4265 115.723 88.6689L121.838 93.7724L125.622 96.9238L128.499 89.4869C128.743 91.0471 128.986 92.2362 128.986 92.2362C128.986 92.2362 128.134 93.4493 127.633 93.5146C127.132 93.5799 130.354 103.677 123.944 101.165Z" fill="black"/>
<path d="M139.759 123.719L134.652 210.838L127.991 211.282L110.744 160.766L113.573 100.793L114.169 88.1224L121.838 94.518L125.626 97.6694L128.587 90.016L134.094 94.8892L139.759 123.719Z" fill="#0BCAD4"/>
<path opacity="0.1" d="M117.716 211.278C117.489 211.848 117.317 212.438 117.202 213.041C112.355 212.281 107.648 210.788 103.237 208.611L103.146 208.563L103.176 208.01L103.193 207.721L104.885 204.518C104.885 204.518 118.528 209.261 117.716 211.278Z" fill="black"/>
<path opacity="0.1" d="M129.734 213.055C128.495 213.269 127.246 213.413 125.991 213.488C125.917 211.77 125.873 210.587 125.873 210.587L129.636 209.818L129.734 213.055Z" fill="black"/>
<path opacity="0.1" d="M139.617 210.993C137.211 211.629 133.495 212.343 130.168 211.897L130.12 209.718L139.197 207.869C139.197 207.869 139.448 209.57 139.617 210.993Z" fill="black"/>
<path opacity="0.1" d="M130.107 212.295C116.23 214.701 103.521 207.804 103.521 207.804L103.643 205.467C103.643 205.467 103.958 178.974 103.085 176.943C102.212 174.911 101.531 164.612 102.026 163.031C102.52 161.45 100.222 137.744 100.222 137.744L99.8493 128.122L86.2233 122.516L92.3154 109.622C93.1383 107.814 93.8459 105.955 94.4341 104.055C95.4935 100.707 100.411 97.4186 100.411 97.4186C100.411 97.4186 105.454 94.1332 107.447 94.2569C109.441 94.3806 112.054 91.3495 112.054 91.3495C113.983 86.356 115.729 88.6173 115.729 88.6173C115.729 88.8545 115.729 88.6173 115.635 89.3562C114.958 94.8377 126.58 112.158 126.746 112.464L127.853 139.841L128.973 174.485L130.107 212.295Z" fill="black"/>
<path d="M129.734 212.295C115.858 214.701 103.146 207.804 103.146 207.804L103.271 205.467C103.271 205.467 103.586 178.974 102.709 176.943C101.833 174.911 101.156 164.612 101.653 163.031C102.151 161.45 99.8493 137.744 99.8493 137.744L99.4736 128.122L85.8409 122.496L91.933 109.601C92.754 107.793 93.4617 105.933 94.0517 104.034C95.1076 100.687 100.029 97.398 100.029 97.398C100.029 97.398 105.072 94.1125 107.062 94.2362C109.052 94.36 111.668 91.3288 111.668 91.3288C113.6 86.3354 115.729 88.5967 115.729 88.5967C115.729 88.8338 115.526 88.9404 115.635 89.3356C117.124 94.6521 126.208 112.138 126.374 112.444L127.494 139.82L128.614 174.465L129.734 212.295Z" fill="white"/>
<path opacity="0.1" d="M125.995 113.224C124.502 112.591 116.596 103.426 116.596 103.426V101.34C116.308 100.652 114.599 101.072 113.211 101.553L113.807 88.882L114.484 89.4524C115.966 94.7655 125.822 112.918 125.995 113.224Z" fill="black"/>
<path d="M126.37 112.464C124.874 111.832 116.968 102.666 116.968 102.666V100.58C116.68 99.8931 114.971 100.312 113.584 100.793L114.183 88.1226L114.86 88.693C116.345 94.0061 126.204 112.162 126.37 112.464Z" fill="white"/>
<path opacity="0.1" d="M103.521 158.175C103.708 158.175 113.171 157.165 113.171 157.165C113.171 157.165 118.901 168.605 118.525 171.389C118.149 174.173 117.469 176.637 115.164 176.2C112.859 175.764 102.76 176.544 102.76 176.544L103.521 158.175Z" fill="black"/>
<path d="M103.146 157.416C103.332 157.416 112.795 156.405 112.795 156.405C112.795 156.405 118.522 167.849 118.149 170.629C117.777 173.41 117.09 175.877 114.788 175.441C112.487 175.004 102.384 175.784 102.384 175.784L103.146 157.416Z" fill="white"/>
<path d="M110.277 152.044C110.277 152.044 118.962 156.783 119.148 158.23C119.334 159.677 114.728 157.598 113.733 157.347C113.078 157.187 112.411 157.081 111.739 157.031L105.102 157.213L110.277 152.044Z" fill="#CF6F80"/>
<path opacity="0.1" d="M123.571 113.815C124.076 113.815 124.485 113.399 124.485 112.887C124.485 112.374 124.076 111.959 123.571 111.959C123.067 111.959 122.657 112.374 122.657 112.887C122.657 113.399 123.067 113.815 123.571 113.815Z" fill="black"/>
<path d="M123.571 113.437C124.076 113.437 124.485 113.021 124.485 112.509C124.485 111.996 124.076 111.581 123.571 111.581C123.067 111.581 122.657 111.996 122.657 112.509C122.657 113.021 123.067 113.437 123.571 113.437Z" fill="#3F3D56"/>
<path opacity="0.1" d="M125.253 153.982C125.758 153.982 126.167 153.567 126.167 153.054C126.167 152.542 125.758 152.126 125.253 152.126C124.749 152.126 124.34 152.542 124.34 153.054C124.34 153.567 124.749 153.982 125.253 153.982Z" fill="black"/>
<path d="M125.253 153.601C125.758 153.601 126.167 153.185 126.167 152.673C126.167 152.16 125.758 151.745 125.253 151.745C124.749 151.745 124.34 152.16 124.34 152.673C124.34 153.185 124.749 153.601 125.253 153.601Z" fill="#3F3D56"/>
<path opacity="0.1" d="M124.482 133.899C124.986 133.899 125.395 133.483 125.395 132.971C125.395 132.458 124.986 132.043 124.482 132.043C123.977 132.043 123.568 132.458 123.568 132.971C123.568 133.483 123.977 133.899 124.482 133.899Z" fill="black"/>
<path d="M124.482 133.521C124.986 133.521 125.395 133.105 125.395 132.593C125.395 132.08 124.986 131.665 124.482 131.665C123.977 131.665 123.568 132.08 123.568 132.593C123.568 133.105 123.977 133.521 124.482 133.521Z" fill="#3F3D56"/>
<path d="M145.547 156.838C145.547 156.838 146.169 157.787 145.547 158.23C144.924 158.673 145.608 159.746 145.608 159.746C145.608 159.746 144.054 160.67 144.738 161.502C145.422 162.333 144.988 166.09 144.988 166.09L143.12 169.231C143.12 169.231 143.232 171.255 143.239 173.99C143.239 178.259 142.991 184.259 141.624 186.995L141.814 209.439C141.814 209.439 135.271 211.866 129.795 211.127L128.983 175.111C128.983 175.111 130.168 154.687 130.604 150.769C130.86 148.735 130.964 146.684 130.916 144.635C130.916 144.635 130.729 138.504 130.103 135.658C130.103 135.658 129.426 123.331 129.359 119.918C129.328 118.286 129.413 113.523 129.508 108.993C129.613 104.041 129.731 99.3706 129.731 99.3706L128.496 89.4455C128.496 89.4455 129.731 89.3184 130.103 89.8236C130.27 89.9817 130.451 90.1233 130.645 90.2463C132.777 91.7103 140.311 96.2123 140.311 96.2123C140.311 96.2123 144.481 97.8962 145.479 100.309C146.477 102.721 147.171 104.433 147.655 105.12C148.139 105.807 148.403 109.038 148.403 109.038C148.403 109.038 149.838 114.983 150.959 115.99C152.079 116.997 152.898 123.403 152.898 123.403L142.998 131.307C142.998 131.307 142.128 144.456 141.942 144.965C141.756 145.473 145.547 156.838 145.547 156.838Z" fill="white"/>
<path d="M145.922 156.838C145.922 156.838 146.542 157.787 145.922 158.23C145.303 158.673 145.98 159.746 145.98 159.746C145.98 159.746 144.437 160.68 145.114 161.512C145.79 162.344 145.364 166.1 145.364 166.1L143.496 169.241C143.496 169.241 143.607 171.265 143.618 174.001C143.618 178.269 143.37 184.269 142.003 187.005L142.189 209.45C142.189 209.45 135.637 211.876 130.168 211.137L129.359 175.121C129.359 175.121 130.543 154.697 130.98 150.779C131.236 148.745 131.339 146.695 131.288 144.645C131.288 144.645 131.102 138.514 130.479 135.668C130.479 135.668 129.802 123.341 129.731 119.929C129.701 118.296 129.789 113.533 129.88 109.003C129.985 104.051 130.103 99.3808 130.103 99.3808L128.472 89.3218C128.472 89.3218 130.103 89.3218 130.479 89.8338C130.644 89.9939 130.826 90.1356 131.02 90.2565C133.153 91.7206 140.69 96.2226 140.69 96.2226C140.69 96.2226 144.856 97.9065 145.855 100.319C146.853 102.732 147.547 104.443 148.034 105.13C148.522 105.818 148.779 109.048 148.779 109.048C148.779 109.048 150.214 114.994 151.334 116C152.454 117.007 153.263 123.4 153.263 123.4L143.364 131.304C143.364 131.304 142.494 144.452 142.304 144.961C142.115 145.47 145.922 156.838 145.922 156.838Z" fill="white"/>
<path opacity="0.1" d="M134.067 102.299L134.96 104.945L130.256 109.756C130.361 104.807 130.479 100.134 130.479 100.134L128.848 90.0745C128.848 90.0745 130.479 90.0745 130.855 90.5865C131.019 90.7461 131.201 90.8867 131.396 91.0058L135.397 102.725L134.067 102.299Z" fill="black"/>
<path d="M133.691 101.539L134.588 104.185L129.883 108.997C129.988 104.044 130.107 99.374 130.107 99.374L128.472 89.3149C128.472 89.3149 130.107 89.3149 130.479 89.827C130.645 89.9861 130.826 90.1277 131.02 90.2497L135.024 101.965L133.691 101.539Z" fill="white"/>
<path opacity="0.1" d="M133.691 75.3553C133.694 76.5937 133.502 77.8246 133.122 79.0016C133.058 79.0117 132.993 79.0087 132.93 78.9928C132.867 78.9768 132.808 78.9483 132.757 78.9088C132.669 75.8158 131.169 72.9118 129.325 70.4409C128.807 69.6948 128.179 69.0341 127.463 68.482C126.74 67.9301 125.84 67.6716 124.939 67.7568C123.923 67.8978 123.026 68.5988 122.001 68.6882C120.647 68.8016 119.435 67.8496 118.092 67.8015C117.546 67.8068 117.007 67.9303 116.511 68.1638C116.016 68.3973 115.575 68.7354 115.218 69.1556C114.512 70.0035 113.988 70.9913 113.678 72.0561C113.146 73.6708 112.856 75.3576 112.819 77.0599C112.802 78.0221 112.71 79.2284 111.83 79.5789C111.897 78.8712 111.817 78.1573 111.598 77.4823C111.378 76.8073 111.023 76.186 110.554 75.6577L110.534 75.6371C110.534 75.5409 110.534 75.4515 110.534 75.3553C110.508 73.7942 110.788 72.2435 111.358 70.7935C111.928 69.3435 112.777 68.0233 113.855 66.9099C114.933 65.7965 116.218 64.9122 117.636 64.3086C119.054 63.7049 120.577 63.394 122.114 63.394C123.652 63.394 125.174 63.7049 126.592 64.3086C128.01 64.9122 129.296 65.7965 130.373 66.9099C131.451 68.0233 132.3 69.3435 132.87 70.7935C133.44 72.2435 133.721 73.7942 133.694 75.3553H133.691Z" fill="black"/>
<path d="M126.908 56.6841C125.15 55.844 123.149 55.6851 121.283 56.2373C120.346 56.5191 119.462 56.9762 118.511 57.2064C116.481 57.7047 114.112 57.1652 112.369 58.3714C111.401 59.0588 110.818 60.1448 110.277 61.1998L108.923 63.8185C108.185 65.2516 107.441 66.7087 107.133 68.2862C106.825 69.8636 107.011 71.63 107.996 72.8981C108.713 73.8226 109.773 74.4034 110.551 75.2729C111.017 75.8017 111.371 76.4227 111.59 77.0969C111.809 77.771 111.889 78.4838 111.824 79.1906C112.707 78.847 112.792 77.6373 112.812 76.675C112.85 74.9727 113.139 73.2859 113.672 71.6713C113.98 70.6061 114.505 69.6182 115.212 68.7707C115.568 68.3509 116.009 68.013 116.505 67.7796C117 67.5461 117.539 67.4224 118.085 67.4167C119.439 67.4648 120.654 68.4133 121.994 68.2999C123.009 68.214 123.91 67.5095 124.932 67.372C125.833 67.2854 126.734 67.5441 127.457 68.0972C128.172 68.6485 128.799 69.3093 129.315 70.056C131.163 72.527 132.662 75.4241 132.75 78.5239C133.132 78.8092 133.684 78.438 133.874 77.9981C134.063 77.5582 134.07 77.0427 134.31 76.6235C134.588 76.1389 135.119 75.8811 135.535 75.5169C136.591 74.5924 136.855 73.0356 136.815 71.6232C136.774 70.2107 136.503 68.7776 136.767 67.3892C136.926 66.5369 137.285 65.7396 137.482 64.8976C137.678 64.0557 137.701 63.1106 137.238 62.3854C136.561 61.3201 135.136 61.1105 133.894 61.0108C132.483 60.8871 131.22 61.0452 130.32 59.8389C129.897 59.2094 129.422 58.6184 128.898 58.0725C128.719 57.8938 126.908 56.7597 126.908 56.6841Z" fill="#512E4E"/>
<path opacity="0.1" d="M90.1223 129.156L86.5855 122.516L85.4652 132.761C85.4652 132.761 86.088 137.311 85.9627 138.009C85.8375 138.706 88.5146 144.961 88.5146 144.961C88.5146 144.961 97.3583 160.955 100.97 161.78L113.171 152.927L109.935 148.755C109.935 148.755 108.815 148.312 108.534 148.755C108.534 148.755 102.526 138.26 101.904 137.5C101.281 136.741 101.403 135.225 101.403 135.225C101.403 135.225 100.469 134.215 100.78 133.266C101.091 132.318 98.9761 129.029 98.9761 129.029L100.905 127.197L90.1223 129.156Z" fill="black"/>
<path d="M86.7716 121.76L85.8375 122.516L84.7172 132.761C84.7172 132.761 85.34 137.311 85.2147 138.009C85.0895 138.706 87.77 144.961 87.77 144.961C87.77 144.961 96.6103 160.955 100.222 161.78L112.426 152.927L109.187 148.755C109.187 148.755 108.067 148.312 107.786 148.755C107.786 148.755 101.778 138.26 101.156 137.5C100.533 136.741 100.658 135.225 100.658 135.225C100.658 135.225 99.7241 134.215 100.035 133.266C100.347 132.318 98.2281 129.029 98.2281 129.029L100.157 127.197L86.7716 121.76Z" fill="white"/>
<path opacity="0.1" d="M144.738 161.894C145.415 162.729 144.988 166.478 144.988 166.478L143.12 169.619C143.12 169.619 143.232 171.647 143.238 174.379L140.098 175.375C139.814 175.465 139.513 175.485 139.22 175.433C138.927 175.381 138.651 175.259 138.414 175.076C138.177 174.893 137.987 174.656 137.859 174.383C137.731 174.111 137.669 173.811 137.678 173.509L138.219 155.773L145.547 158.618C144.924 159.058 145.608 160.137 145.608 160.137C145.608 160.137 144.054 161.058 144.738 161.894Z" fill="black"/>
<path d="M145.114 161.512C145.79 162.347 145.364 166.1 145.364 166.1L143.496 169.241C143.496 169.241 143.607 171.265 143.618 174.001L140.419 175.015C140.141 175.102 139.847 175.121 139.56 175.07C139.273 175.019 139.003 174.899 138.771 174.72C138.539 174.541 138.353 174.309 138.228 174.042C138.102 173.775 138.041 173.482 138.05 173.186L138.595 155.395L145.926 158.24C145.3 158.68 145.983 159.756 145.983 159.756C145.983 159.756 144.437 160.68 145.114 161.512Z" fill="white"/>
<path d="M147.54 153.058C147.54 153.058 147.043 156.285 145.797 156.474C144.552 156.663 143.993 161.694 142.751 161.515C141.509 161.337 142.331 156.838 142.375 155.965C142.419 155.092 141.022 151.477 142.067 150.656C143.113 149.834 146.423 150.656 146.423 150.656L147.54 153.058Z" fill="#CF6F80"/>
<path opacity="0.1" d="M150.19 128.207L152.539 123.396C152.539 123.396 153.473 127.063 153.473 129.022C153.473 130.981 154.78 131.173 154.78 131.173C154.78 131.173 156.211 132.892 155.457 134.143C154.702 135.393 154.397 138.507 154.397 138.507C154.397 138.507 154.644 144.449 153.524 145.27C152.404 146.092 152.17 148.054 152.17 148.054C152.17 148.054 150.112 151.783 150.177 152.669C150.241 153.556 147.313 159.56 147.313 159.56C147.313 159.56 148.745 152.099 140.402 148.875C140.402 148.875 140.338 146.343 140.961 145.648C141.583 144.954 142.555 144.638 141.946 141.129C141.336 137.62 141.77 133.428 141.77 132.586C141.77 131.744 143.638 126.493 143.638 126.493L150.19 128.207Z" fill="black"/>
<path d="M151.206 122.709L153.257 123.396C153.257 123.396 154.194 127.063 154.194 129.022C154.194 130.981 155.501 131.173 155.501 131.173C155.501 131.173 156.932 132.892 156.177 134.143C155.423 135.394 155.121 138.507 155.121 138.507C155.121 138.507 155.369 144.449 154.248 145.27C153.128 146.092 152.878 148.054 152.878 148.054C152.878 148.054 150.823 151.783 150.887 152.67C150.952 153.556 148.021 159.56 148.021 159.56C148.021 159.56 149.456 152.099 141.11 148.875C141.11 148.875 141.049 146.343 141.671 145.648C142.294 144.954 143.266 144.638 142.656 141.129C142.047 137.62 142.48 133.428 142.48 132.586C142.48 131.744 144.349 126.493 144.349 126.493L151.206 122.709Z" fill="white"/>
<path opacity="0.1" d="M105.904 247.414C105.904 247.414 109.174 245.328 111.319 246.844C113.465 248.359 105.904 247.414 105.904 247.414Z" fill="black"/>
<path opacity="0.1" d="M131.308 240.964C131.308 240.964 134.202 240.586 136.632 243.242C139.062 245.899 131.308 240.964 131.308 240.964Z" fill="black"/>
<g opacity="0.1">
<path opacity="0.1" d="M135.542 74.7642C135.126 75.1285 134.591 75.3897 134.314 75.8742C134.077 76.2901 134.07 76.8021 133.88 77.2489C133.691 77.6957 133.139 78.06 132.757 77.7781C132.669 74.6852 131.166 71.7812 129.321 69.3068C128.806 68.5601 128.179 67.8992 127.463 67.3479C126.739 66.7949 125.837 66.5363 124.935 66.6228C123.92 66.7637 123.026 67.4648 122.001 67.5507C120.647 67.6675 119.432 66.7156 118.088 66.6675C117.542 66.673 117.004 66.797 116.509 67.0311C116.014 67.2652 115.574 67.6041 115.218 68.0249C114.512 68.8711 113.987 69.8579 113.678 70.922C113.146 72.5368 112.857 74.2236 112.819 75.9258C112.798 76.8846 112.71 78.0806 111.837 78.438C111.857 78.6919 111.857 78.947 111.837 79.2009C112.717 78.8572 112.805 77.6475 112.825 76.6853C112.863 74.983 113.153 73.2962 113.685 71.6815C113.994 70.6164 114.518 69.6285 115.225 68.781C115.581 68.3613 116.021 68.0234 116.516 67.7899C117.011 67.5565 117.549 67.4327 118.095 67.427C119.449 67.4751 120.667 68.4236 122.008 68.3102C123.023 68.2243 123.923 67.5198 124.942 67.3823C125.844 67.2958 126.746 67.5544 127.47 68.1074C128.186 68.6587 128.813 69.3196 129.328 70.0663C131.173 72.5373 132.675 75.4343 132.763 78.5342C133.146 78.8194 133.698 78.4483 133.887 78.0084C134.077 77.5685 134.083 77.053 134.32 76.6337C134.598 76.1492 135.133 75.8914 135.549 75.5271C136.605 74.6027 136.869 73.0459 136.828 71.6334C136.828 71.5887 136.828 71.5441 136.828 71.5028C136.764 72.7263 136.442 73.9738 135.542 74.7642Z" fill="black"/>
<path opacity="0.1" d="M110.558 74.5202C109.779 73.6508 108.717 73.07 108.003 72.149C107.401 71.3336 107.058 70.3522 107.018 69.3344C106.911 70.6062 107.261 71.8743 108.003 72.905C108.717 73.8295 109.779 74.4103 110.558 75.2797C111.305 76.1302 111.754 77.2083 111.834 78.3452C111.886 77.6533 111.799 76.9578 111.58 76.3006C111.361 75.6433 111.013 75.0378 110.558 74.5202Z" fill="black"/>
<path opacity="0.1" d="M137.488 64.1449C137.289 64.9869 136.933 65.7876 136.771 66.6365C136.675 67.2037 136.639 67.7799 136.666 68.3548C136.677 68.0273 136.712 67.7011 136.771 67.3788C136.933 66.5265 137.289 65.7292 137.488 64.8872C137.605 64.4228 137.642 63.9417 137.6 63.4645C137.579 63.6937 137.542 63.9211 137.488 64.1449Z" fill="black"/>
</g>
<path opacity="0.1" d="M44.9224 261.388C63.1359 261.388 77.9009 258.98 77.9009 256.009C77.9009 253.039 63.1359 250.631 44.9224 250.631C26.7089 250.631 11.9439 253.039 11.9439 256.009C11.9439 258.98 26.7089 261.388 44.9224 261.388Z" fill="#0BCAD4"/>
<path d="M45.9851 152.979H43.863V201.494H45.9851V152.979Z" fill="#535461"/>
<path d="M59.32 201.346L59.188 203.532L58.9985 206.625L58.9206 207.91L58.7345 211.003L58.6532 212.288L58.4637 215.381L56.3247 250.459C56.2317 251.968 55.5759 253.385 54.4907 254.421C53.4054 255.456 51.9723 256.033 50.4831 256.033H39.3616C37.8727 256.033 36.4401 255.456 35.3554 254.42C34.2707 253.385 33.6155 251.968 33.5234 250.459L31.3946 215.357L31.205 212.264L31.1272 210.979L30.9376 207.886L30.8598 206.601L30.6703 203.508L30.5349 201.322C30.5114 200.901 30.5728 200.48 30.7153 200.085C30.8578 199.689 31.0784 199.327 31.3637 199.021C31.6489 198.715 31.9927 198.471 32.374 198.305C32.7553 198.139 33.166 198.053 33.5809 198.054H56.3281C56.7415 198.057 57.1498 198.147 57.5277 198.317C57.9057 198.487 58.2454 198.734 58.5257 199.043C58.8061 199.351 59.0212 199.715 59.1578 200.111C59.2944 200.507 59.3496 200.927 59.32 201.346Z" fill="#3F3D56"/>
<path d="M59.188 203.532L58.9985 206.615H30.8463L30.6567 203.532H59.188Z" fill="#9D9CB5"/>
<path d="M58.9206 207.9L58.7345 210.986H31.1137L30.9241 207.9H58.9206Z" fill="#9D9CB5"/>
<path d="M58.6532 212.275L58.4671 215.357H31.381L31.1915 212.275H58.6532Z" fill="#9D9CB5"/>
<path d="M27.4178 171.162C39.7746 180.242 44.9325 194.442 44.9325 194.442C44.9325 194.442 30.0408 193.923 17.6806 184.843C5.32042 175.764 0.172607 161.567 0.172607 161.567C0.172607 161.567 15.0576 162.083 27.4178 171.162Z" fill="#0BCAD4"/>
<path d="M0.162476 161.567C0.162476 161.567 15.6228 170.279 20.5811 177.492C25.5394 184.706 44.9325 194.442 44.9325 194.442" stroke="#535461" stroke-width="2" stroke-miterlimit="10"/>
<path d="M35.395 152.872C42.12 157.811 44.9325 165.54 44.9325 165.54C44.9325 165.54 36.8267 165.258 30.0983 160.32C23.3699 155.381 20.5642 147.649 20.5642 147.649C20.5642 147.649 28.6667 147.93 35.395 152.872Z" fill="#0BCAD4"/>
<path d="M20.5642 147.649C20.5642 147.649 28.978 152.391 31.6755 156.316C34.3729 160.241 44.9325 165.54 44.9325 165.54" stroke="#535461" stroke-width="2" stroke-miterlimit="10"/>
<path d="M54.6968 165.148C46.97 173.77 45.3353 185.039 45.3353 185.039C45.3353 185.039 56.2299 182.324 63.95 173.698C71.67 165.072 73.3115 153.807 73.3115 153.807C73.3115 153.807 62.4236 156.525 54.6968 165.148Z" fill="#0BCAD4"/>
<path d="M73.3183 153.811C73.3183 153.811 63.2528 162.65 60.6941 168.739C58.1354 174.829 45.3353 185.039 45.3353 185.039" stroke="#535461" stroke-width="2" stroke-miterlimit="10"/>
<path d="M338.338 162.113C338.338 162.113 332.75 133.885 334.889 130.373C334.889 130.373 334.967 127.108 334.838 122.946C334.838 122.788 334.838 122.63 334.838 122.468C335.214 122.723 335.607 122.953 336.012 123.156C337.983 124.184 340.246 124.48 342.409 123.994L340.717 122.08C340.311 121.623 339.888 121.128 339.8 120.523C339.712 119.918 339.955 119.379 340.165 118.839C341.773 114.715 341.857 109.529 338.761 106.381C336.144 103.735 335.508 100.319 332.669 97.9032C330.594 96.1333 329.453 93.5387 328.377 91.0299C327.467 88.9095 326.549 86.7719 326.028 84.5243C325.622 82.7682 325.46 80.9502 324.901 79.2354C324.343 77.5205 323.297 75.8537 321.662 75.0873C321.08 74.8158 320.434 74.6612 319.902 74.3003C319.205 73.8226 318.785 73.046 318.281 72.3655C315.719 68.9289 307.139 70.953 303.078 72.3483C301.974 72.6997 300.951 73.2749 300.073 74.0391L300.11 73.9773C300.14 73.9257 300.177 73.8742 300.211 73.8226C299.767 74.1876 299.383 74.6228 299.074 75.1114C298.482 76.0633 298.235 77.1734 297.741 78.2044C297.145 79.4244 293.832 82.8301 295.256 84.2013C295.356 84.2934 295.471 84.3677 295.595 84.4213C296.13 84.6473 296.719 84.7071 297.287 84.5931L297.226 84.7409C296.74 85.9507 296.49 87.2453 296.492 88.5521C296.492 94.1985 301.078 98.7761 306.74 98.7761C307.804 98.7772 308.863 98.6114 309.877 98.2847C309.901 98.4153 309.921 98.5459 309.945 98.6765C309.945 98.728 309.962 98.7796 309.969 98.8311L309.789 99.0854C309.78 99.0697 309.77 99.0548 309.759 99.0407L304.445 106.581C303.633 107.162 298.956 110.598 298.692 113.176C298.414 115.997 298.137 119.3 298.137 119.3L298.099 120.008C297.867 120.205 297.596 120.348 297.303 120.428C297.011 120.508 296.705 120.523 296.407 120.472C294.749 120.197 294.749 126.658 294.749 126.658C294.749 126.658 293.645 127.689 292.887 126.795C292.129 125.902 290.126 128.929 290.126 128.929L277.569 129.479L277.281 129.496L276.604 127.369C276.532 127.145 276.375 126.958 276.167 126.851C275.96 126.744 275.719 126.723 275.498 126.795C275.445 126.813 275.394 126.834 275.345 126.86L275.298 126.888L275.21 126.95L275.166 126.991C275.142 127.013 275.119 127.037 275.098 127.063L275.058 127.111L275.037 127.132C274.959 127.242 274.908 127.368 274.886 127.502C274.865 127.636 274.875 127.773 274.916 127.902L275.498 129.727C273.074 130.221 270.597 131.617 272.618 135.459L262.376 133.538L265.689 136.363L282.795 139.947C282.568 140.36 282.717 140.958 283.424 141.799C286.47 145.432 292.021 146.418 294.255 146.673C294.844 148.013 295.581 149.281 296.451 150.453L296.258 154.072C296.258 154.072 290.603 181.654 289.567 183.053C290.09 182.451 290.568 181.812 290.999 181.139C289.357 186.806 287.063 194.562 286.46 195.724C285.492 197.58 284.595 205.089 285.699 205.57C286.037 205.718 287.005 205.646 288.386 205.539V206.161L288.325 229.733C288.325 229.733 288.602 244.191 287.841 245.569C287.079 246.947 286.876 249.837 286.876 249.837C286.876 249.837 283.83 255.539 281.417 257.831C281.401 257.849 281.383 257.865 281.363 257.879L281.289 257.343C281.289 257.343 278.388 261.061 271.971 260.852C271.971 260.852 268.109 263.402 273.836 263.539C279.563 263.677 286.876 263.333 286.876 263.333C286.876 263.333 291.984 255.429 296.262 256.46V262.45H297.571V256.364C298.179 255.957 298.699 255.43 299.1 254.814C299.5 254.198 299.774 253.506 299.903 252.779C300.015 252.03 299.933 251.264 299.665 250.557C299.397 249.851 298.952 249.227 298.374 248.748C298.114 248.51 297.905 248.219 297.762 247.895C297.618 247.571 297.541 247.22 297.538 246.865L297.49 246.906C297.49 246.786 297.46 246.662 297.446 246.535C297.07 243.442 296.6 237.06 298.262 232.338C300.54 225.863 301.23 216.846 299.572 211.477C299.037 209.762 298.597 208.016 298.255 206.25C298.214 206.027 298.177 205.814 298.143 205.615C299.277 205.77 300.4 206 301.504 206.302C305.346 207.378 313.749 207.577 320.924 207.518C320.941 207.718 320.962 207.927 320.985 208.137C321.113 209.594 321.381 211.035 321.784 212.44C322.684 215.189 323.097 227.31 323.097 227.31C323.097 227.31 324.258 237.276 323.625 241.332C323.287 243.586 322.948 245.851 322.755 248.126V248.171C322.755 248.171 320.853 253.669 319.462 256.656C319.428 256.731 319.391 256.807 319.357 256.879C318.987 256.913 318.621 256.995 318.271 257.123C318.271 257.123 316.406 260.903 314.548 261.529C312.69 262.154 313.306 264.213 317.513 263.457C321.72 262.701 328.072 262.082 328.072 262.082L328.347 258.226L329.639 256.583L329.301 260.429L330.678 260.154L330.496 255.477L332.611 252.789C332.611 252.789 335.166 250.48 331.369 245.937V246.036C331.328 245.971 331.291 245.902 331.247 245.837V245.816C330.618 244.827 330.117 242.981 331.034 239.706C332.692 233.788 333.657 228.417 333.657 228.417C333.657 228.417 337.359 214.027 332.909 207.219H333.105C332.649 206.261 332.327 205.244 332.147 204.195C332.125 204.072 332.104 203.944 332.086 203.814C335.38 203.621 338.612 203.016 341.248 201.711C341.238 201.697 339.651 167.55 338.338 162.113ZM296.529 138.298V138.366L295.852 138.401L296.529 138.298ZM294.207 138.624C294.096 138.649 293.992 138.7 293.903 138.772C293.612 139.19 293.429 139.676 293.371 140.184L292.315 139.944C292.315 139.944 291.574 139.782 290.508 139.6L290.004 139.085C291.391 138.968 292.833 138.796 294.207 138.624Z" fill="url(#paint1_linear)"/>
<path d="M329.145 255.525L328.743 260.395L330.093 260.12L329.89 254.838L329.145 255.525Z" fill="#0BCAD4"/>
<path d="M298.336 232.403C296.708 237.111 297.169 243.466 297.534 246.552C297.669 247.693 297.795 248.387 297.795 248.387C297.795 248.387 295.361 254.016 295.158 254.229C294.955 254.442 287.997 258.755 287.997 258.755L283.133 261.639C283.133 261.639 278.199 259.443 280.564 258.687C281.048 258.49 281.483 258.188 281.84 257.803C284.209 255.518 287.184 249.837 287.184 249.837C287.184 249.837 287.387 246.954 288.132 245.583C288.877 244.212 288.606 229.802 288.606 229.802L288.663 206.312V203.25L297.92 203.319C297.978 204.358 298.112 205.392 298.319 206.412C298.652 208.172 299.082 209.911 299.609 211.622C301.24 216.98 300.563 225.953 298.336 232.403Z" fill="#FFB0B1"/>
<path opacity="0.1" d="M297.795 248.387C297.795 248.387 295.361 254.016 295.158 254.229C294.955 254.442 287.997 258.755 287.997 258.755L283.133 261.639C283.133 261.639 278.199 259.443 280.564 258.687C281.048 258.49 281.483 258.188 281.84 257.803L282.05 259.305L283.671 259.237L297.548 246.559C297.67 247.693 297.795 248.387 297.795 248.387Z" fill="black"/>
<path d="M297.625 246.878L283.671 259.642L282.05 259.711L281.712 257.305C281.712 257.305 278.875 261.01 272.573 260.804C272.573 260.804 268.79 263.343 274.398 263.481C280.006 263.618 287.167 263.275 287.167 263.275C287.167 263.275 292.17 255.37 296.356 256.401V262.371H297.642V256.346C298.24 255.938 298.751 255.41 299.143 254.796C299.535 254.182 299.8 253.493 299.924 252.772C300.035 252.029 299.956 251.27 299.695 250.567C299.433 249.864 298.998 249.241 298.431 248.758C298.178 248.517 297.976 248.226 297.837 247.903C297.699 247.579 297.627 247.231 297.625 246.878Z" fill="#0BCAD4"/>
<path d="M330.431 239.744C329.531 243.009 330.022 244.847 330.638 245.834V245.854C331.428 247.072 331.977 248.434 332.256 249.865L332.31 250.174L325.961 259.573L322.515 260.948C322.515 260.948 316.975 259.027 317.987 258.477C318.24 258.343 318.636 257.628 319.09 256.642C320.444 253.669 322.312 248.184 322.312 248.184V248.14C322.508 245.875 322.82 243.617 323.165 241.369C323.784 237.324 322.647 227.396 322.647 227.396C322.647 227.396 322.241 215.323 321.361 212.577C320.964 211.181 320.7 209.749 320.572 208.302C320.39 206.584 320.349 205.168 320.349 205.168C320.349 205.168 323.998 200.013 330.685 205.58C331.22 206.024 331.691 206.542 332.083 207.12C336.703 213.794 332.983 228.496 332.983 228.496C332.983 228.496 332.053 233.843 330.431 239.744Z" fill="#FFB0B1"/>
<path opacity="0.1" d="M332.32 250.174L325.971 259.573L322.525 260.948C322.525 260.948 316.985 259.027 317.997 258.477C318.251 258.343 318.647 257.628 319.1 256.642C321.446 256.621 322.661 258.889 322.661 258.889L325.632 258.408C325.632 258.408 329.551 250.586 330.431 250.109C331.311 249.631 330.567 246.538 330.567 246.538V245.751C330.59 245.779 330.611 245.81 330.638 245.837V245.858C331.428 247.075 331.977 248.438 332.256 249.868L332.32 250.174Z" fill="black"/>
<path d="M322.864 259.092C322.864 259.092 321.171 255.937 317.929 257.102C317.929 257.102 316.105 260.883 314.281 261.494C312.456 262.106 313.066 264.168 317.188 263.415C321.31 262.663 327.524 262.041 327.524 262.041L327.795 258.195L331.985 252.776C331.985 252.776 334.483 250.476 330.767 245.95V246.737C330.767 246.737 331.511 249.83 330.631 250.308C329.751 250.786 325.845 258.611 325.845 258.611L322.864 259.092Z" fill="#0BCAD4"/>
<path opacity="0.1" d="M297.93 203.312C297.989 204.351 298.122 205.385 298.33 206.405C294.519 205.838 290.982 206.12 288.663 206.305V203.243L297.93 203.312Z" fill="black"/>
<path opacity="0.1" d="M332.459 207.976C332.459 207.976 327.044 208.244 320.586 208.299C320.403 206.58 320.363 205.164 320.363 205.164C320.363 205.164 324.011 200.009 330.699 205.577C331.234 206.021 331.704 206.539 332.097 207.116C332.201 207.409 332.322 207.696 332.459 207.976Z" fill="black"/>
<path d="M332.459 207.357C332.459 207.357 308.74 208.522 301.511 206.463C294.282 204.405 287.117 206.188 286.037 205.711C284.957 205.233 285.834 197.751 286.782 195.899C287.729 194.047 292.928 175.314 292.928 175.314L297.93 148.831L303.2 147.356L303.572 147.25L312.754 144.679L319.483 142.793C319.483 142.793 332.861 195.83 331.714 199.741C331.297 201.239 331.23 202.814 331.518 204.343C331.693 205.387 332.01 206.401 332.459 207.357Z" fill="#0BCAD4"/>
<path d="M280.493 130.72C280.493 130.72 275.755 135.875 279.343 138.748C282.93 141.621 285.289 139.023 285.289 139.023L280.493 130.72Z" fill="#C7DAF5"/>
<path opacity="0.1" d="M280.493 130.72C280.493 130.72 275.755 135.875 279.343 138.748C282.93 141.621 285.289 139.023 285.289 139.023L280.493 130.72Z" fill="black"/>
<path d="M318.775 96.8275C318.775 96.8275 318.22 97.3636 317.384 98.154C316.193 99.2846 314.43 100.938 312.866 102.323C310.7 104.237 308.913 105.642 309.552 104.443C310.192 103.244 310.07 101.154 309.752 99.1987C309.728 99.0681 309.708 98.9375 309.684 98.8104C309.421 97.3743 309.072 95.9558 308.639 94.5627C308.639 94.5627 312.138 89.9714 314.074 88.1602C314.795 87.4729 315.299 87.1911 315.33 87.6688C315.364 88.3115 315.837 89.7308 316.426 91.236C316.443 91.2841 316.46 91.3288 316.481 91.3769C316.873 92.4079 317.317 93.4664 317.706 94.3806C318.301 95.7827 318.775 96.8275 318.775 96.8275Z" fill="#FFB0B1"/>
<path opacity="0.1" d="M316.481 91.3769C316.152 93.1731 315.354 94.8465 314.17 96.2225C312.987 97.5984 311.461 98.6263 309.752 99.1987C309.483 97.6299 309.111 96.0812 308.639 94.5627C308.639 94.5627 315.228 85.9195 315.33 87.6688C315.354 88.3321 315.868 89.8029 316.481 91.3769Z" fill="black"/>
<path opacity="0.1" d="M309.096 101.508L309.948 100.288C309.948 100.288 310.514 103.787 312.592 102.244C314.67 100.701 314.771 113.856 314.771 113.856L312.541 147.717L296.424 146.738L296.881 130.376L298.705 122.128L303.217 110.138L305.901 106.175L309.096 101.508Z" fill="black"/>
<path d="M314.771 114.066L312.741 144.683L312.527 147.927L303.542 147.38L303.203 147.36L296.434 146.947L296.891 130.582L298.715 122.334L303.227 110.344L305.911 106.381L309.106 101.697L309.959 100.481C309.959 100.481 310.524 103.979 312.602 102.436L312.646 102.405C314.677 101.099 314.771 114.066 314.771 114.066Z" fill="#0BCAD4"/>
<path d="M298.942 119.468C298.942 119.468 298.133 121.186 296.509 120.908C294.884 120.63 294.888 127.094 294.888 127.094C294.888 127.094 293.808 128.125 293.063 127.232C292.319 126.338 290.356 129.359 290.356 129.359L278.056 129.909C278.056 129.909 283.529 132.448 282.456 140.133C282.456 140.133 301.037 138.964 301.646 137.181C302.256 135.397 298.942 119.468 298.942 119.468Z" fill="white"/>
<path opacity="0.03" d="M298.942 119.468C298.942 119.468 298.133 121.186 296.509 120.908C294.884 120.63 294.888 127.094 294.888 127.094C294.888 127.094 293.808 128.125 293.063 127.232C292.319 126.338 290.356 129.359 290.356 129.359L278.056 129.909C278.056 129.909 283.529 132.448 282.456 140.133C282.456 140.133 301.037 138.964 301.646 137.181C302.256 135.397 298.942 119.468 298.942 119.468Z" fill="black"/>
<path d="M263.198 133.947L266.441 136.758L293.131 142.452L289.821 139.023L263.198 133.947Z" fill="white"/>
<path d="M309.146 102.591C308.703 103.278 307.434 106.797 306.374 109.87C305.491 112.43 304.753 114.681 304.753 114.681C304.753 114.681 303.031 126.07 302.151 128.129C301.271 130.187 301.748 138.215 301.748 138.215L298.468 158.041C298.468 158.041 296.982 168.265 294.688 174.372C292.424 180.383 289.902 183.201 289.824 183.29C290.84 181.895 296.373 154.422 296.373 154.422L298.201 119.774C298.201 119.774 298.468 116.482 298.739 113.667C299.01 110.853 304.493 107.01 304.493 107.01L309.779 99.3776C310.311 100.099 309.955 101.357 309.146 102.591Z" fill="white"/>
<path d="M295.361 147.119C295.361 147.119 287.577 146.776 283.807 142.178C280.036 137.579 292.522 140.342 292.522 140.342L295.767 141.098L295.361 147.119Z" fill="#FFB0B1"/>
<path opacity="0.1" d="M331.714 199.745C331.297 201.242 331.23 202.818 331.518 204.346C323.026 204.958 313.942 202.628 313.942 202.628C312.25 204.209 307.793 206.539 307.793 206.539L305.363 175.953C303.809 171.829 303.2 150.223 303.2 150.223C303.2 150.223 303.339 149.092 303.538 147.398C303.538 147.356 303.538 147.312 303.555 147.271C304.161 142.538 305.362 133.655 305.951 132.455C306.764 130.806 303.454 126.417 303.454 126.417L304.96 113.375L305.143 111.801C308.317 110.361 310.751 105.763 310.751 105.763L312.619 102.44C314.65 101.116 314.754 114.083 314.754 114.083L312.724 144.7L319.452 142.813C319.452 142.813 332.861 195.834 331.714 199.745Z" fill="black"/>
<path d="M340.429 201.858C331.173 206.525 314.348 202.202 314.348 202.202C312.656 203.783 308.199 206.113 308.199 206.113L305.765 175.527C304.215 171.403 303.606 149.797 303.606 149.797C303.606 149.797 305.562 133.675 306.374 132.029C306.611 131.548 306.496 130.833 306.215 130.063C304.834 126.399 304.326 122.455 304.733 118.554L305.383 112.949L305.562 111.378C308.74 109.935 311.174 105.337 311.174 105.337L312.866 102.326L315.98 96.7794L317.455 94.1538L317.706 94.3841L319.618 96.1436C319.618 96.1436 320.43 96.831 321.649 97.862C324.299 100.13 328.878 104.124 331.24 106.567C333.318 108.718 333.975 117.087 334.165 123.386C334.29 127.534 334.215 130.785 334.215 130.785C332.12 134.287 337.6 162.402 337.6 162.402C338.876 167.835 340.429 201.858 340.429 201.858Z" fill="white"/>
<path opacity="0.03" d="M322.661 105.268C322.661 105.268 316.308 117.547 317.046 122.214C317.784 126.881 319.882 132.163 318.87 133.397C318.522 133.864 318.073 134.244 317.557 134.505C317.041 134.767 316.472 134.904 315.895 134.906C314.88 134.974 312.172 136.895 312.172 137.102C312.172 137.308 309.671 137.308 307.434 138.27C305.197 139.232 301.893 139.779 301.893 139.779C301.893 139.779 295.463 139.573 294.864 140.191C294.265 140.81 293.649 144.511 294.931 147.463C296.214 150.415 297.639 152.618 298.715 153.02C299.792 153.422 306.621 151.099 312.162 150.549C317.702 149.999 323.717 145.542 323.717 145.542C323.717 145.542 330.34 143.136 331.501 139.091C332.662 135.046 330.083 112.815 330.083 112.815C330.083 112.815 328.133 102.453 322.661 105.268Z" fill="black"/>
<path opacity="0.03" d="M321.848 104.237C321.848 104.237 315.496 116.519 316.24 121.183C316.985 125.846 319.076 131.132 318.061 132.369C317.715 132.837 317.266 133.217 316.75 133.479C316.235 133.741 315.666 133.877 315.09 133.878C314.074 133.947 311.367 135.868 311.367 136.074C311.367 136.28 308.865 136.28 306.628 137.239C304.391 138.198 301.088 138.748 301.088 138.748C301.088 138.748 294.657 138.541 294.062 139.16C293.466 139.779 292.843 143.483 294.129 146.432C295.415 149.381 296.837 151.587 297.913 151.989C298.989 152.391 305.819 150.068 311.36 149.522C316.9 148.975 322.914 144.511 322.914 144.511C322.914 144.511 329.535 142.105 330.682 138.064C331.829 134.022 329.264 111.784 329.264 111.784C329.264 111.784 327.321 101.426 321.848 104.237Z" fill="black"/>
<path d="M322.461 104.649C322.461 104.649 316.108 116.932 316.853 121.595C317.597 126.259 319.689 131.544 318.677 132.778C318.331 133.247 317.882 133.628 317.365 133.89C316.849 134.153 316.28 134.29 315.702 134.29C314.687 134.359 311.979 136.28 311.979 136.483C311.979 136.686 309.481 136.689 307.241 137.651C305 138.614 301.7 139.16 301.7 139.16C301.7 139.16 295.27 138.954 294.671 139.572C294.072 140.191 293.456 143.896 294.739 146.844C296.021 149.793 297.446 151.999 298.522 152.401C299.599 152.804 306.429 150.48 311.969 149.931C317.509 149.381 323.524 144.923 323.524 144.923C323.524 144.923 330.147 142.518 331.308 138.473C332.469 134.428 329.907 112.196 329.907 112.196C329.907 112.196 327.93 101.852 322.461 104.649Z" fill="white"/>
<path opacity="0.1" d="M322.322 137.593C322.322 137.593 317.245 136.562 319.012 138.28C320.779 139.999 320.769 141.504 322.931 141.435C325.094 141.366 322.322 137.593 322.322 137.593Z" fill="black"/>
<path opacity="0.1" d="M330.902 174.564C330.902 174.564 328.607 176.142 332.997 179.778C337.387 183.414 330.902 174.564 330.902 174.564Z" fill="black"/>
<path opacity="0.1" d="M326.522 187.531C326.522 187.737 325.71 195.091 328.749 196.93C331.789 198.769 326.522 187.531 326.522 187.531Z" fill="black"/>
<path d="M278.266 129.891C275.816 129.977 270.522 130.737 273.267 135.937C275.694 140.538 279.772 137.462 282.067 135.129C281.507 132.953 280.147 131.079 278.266 129.891Z" fill="#FFB0B1"/>
<path d="M282.097 135.088L282.2 134.981L282.097 135.088Z" fill="#FFB0B1"/>
<path opacity="0.1" d="M321.649 98.0715C319.049 99.8757 316.87 101.398 316.443 101.714C315.279 102.591 313.059 107.735 311.627 110.361C310.487 112.474 306.781 113.017 305.383 113.151L305.562 111.581C308.74 110.138 311.174 105.539 311.174 105.539L317.455 94.3564L319.618 96.3531C319.618 96.3531 320.43 97.0405 321.649 98.0715Z" fill="black"/>
<path d="M321.649 97.8654C319.049 99.6696 316.87 101.192 316.443 101.512C315.279 102.385 313.059 107.529 311.627 110.155C310.487 112.268 306.781 112.811 305.383 112.945L305.562 111.375C308.74 109.931 311.174 105.333 311.174 105.333L317.455 94.1504L319.618 96.1402C319.618 96.1402 320.43 96.8207 321.649 97.8654Z" fill="#DCE7FF"/>
<path d="M316.646 89.1088C316.648 91.1718 316.032 93.1865 314.88 94.8858C313.519 96.895 311.494 98.3424 309.173 98.9654C306.851 99.5884 304.387 99.3457 302.226 98.2813C300.066 97.2169 298.352 95.4015 297.398 93.1642C296.443 90.927 296.309 88.4164 297.021 86.0877C297.733 83.7591 299.244 81.7668 301.279 80.4724C303.314 79.178 305.738 78.6672 308.113 79.0327C310.487 79.3981 312.653 80.6157 314.219 82.4644C315.785 84.3131 316.646 86.6705 316.646 89.1088Z" fill="#FFB0B1"/>
<path opacity="0.1" d="M334.164 123.389C332.79 122.531 331.671 121.31 330.926 119.856C330.36 118.722 329.985 117.413 329.02 116.609C328.15 115.887 326.989 115.712 325.906 115.389C322.346 114.32 319.361 111.021 319.249 107.254C319.195 105.481 319.74 103.711 319.493 101.955C319.352 100.961 318.963 100.02 318.362 99.2228C318.064 98.8413 317.737 98.484 317.384 98.154C316.91 97.7003 316.413 97.2605 315.98 96.7793C315.707 96.4814 315.468 96.1528 315.269 95.7999C315.108 95.5111 314.977 95.2058 314.88 94.8892C314.203 92.7859 314.819 90.2909 314.074 88.1637L314.034 88.0468C313.753 87.2907 313.181 86.5347 312.385 86.4763C311.59 86.4178 310.91 87.088 310.152 87.387C308.564 88.0124 306.852 86.9471 305.528 85.8611C304.205 84.7751 302.712 83.5345 301.03 83.7751C299.917 83.9366 299.037 84.7064 298.011 85.105C297.78 85.1961 297.541 85.2662 297.297 85.3147C298.165 83.117 299.76 81.2948 301.807 80.1611C303.854 79.0275 306.226 78.6532 308.516 79.1025C310.805 79.5519 312.869 80.7968 314.353 82.6234C315.837 84.4501 316.648 86.7444 316.646 89.1122C316.648 89.8272 316.574 90.5403 316.426 91.2395C316.443 91.2876 316.46 91.3322 316.481 91.3804C316.873 92.4113 317.317 93.4698 317.706 94.384L319.618 96.1436C319.618 96.1436 320.43 96.8309 321.649 97.8619C324.299 100.13 328.878 104.123 331.24 106.567C333.318 108.725 333.968 117.09 334.164 123.389Z" fill="black"/>
<path d="M297.893 78.8263C298.377 77.8262 298.617 76.7059 299.196 75.7574C300.046 74.3827 301.528 73.5029 303.051 72.9703C307.028 71.5784 315.431 69.5577 317.943 72.9703C318.437 73.6576 318.846 74.4205 319.53 74.8948C320.051 75.2556 320.681 75.4103 321.253 75.6818C322.854 76.4447 323.876 78.108 324.421 79.8058C324.965 81.5035 325.128 83.3249 325.527 85.0741C326.038 87.3183 326.935 89.4455 327.829 91.5591C328.881 94.0541 329.998 96.6419 332.029 98.4049C334.801 100.811 335.413 104.216 337.986 106.856C341.032 109.99 340.933 115.162 339.363 119.269C339.157 119.808 338.923 120.372 339.004 120.946C339.086 121.52 339.505 122.042 339.901 122.499L341.566 124.407C337.627 125.372 333.169 123.283 331.335 119.616C330.77 118.482 330.394 117.176 329.426 116.368C328.56 115.647 327.396 115.475 326.316 115.152C322.755 114.079 319.77 110.777 319.659 107.01C319.604 105.24 320.149 103.47 319.902 101.718C319.765 100.717 319.374 99.77 318.768 98.9685C317.838 97.7347 316.433 96.9065 315.675 95.5318C314.392 93.2327 315.367 90.2463 314.443 87.7788C314.159 87.0227 313.59 86.2666 312.795 86.2082C312 86.1498 311.319 86.8199 310.558 87.1189C308.974 87.7444 307.261 86.6825 305.938 85.5931C304.615 84.5036 303.122 83.2665 301.437 83.5105C300.323 83.6685 299.446 84.4383 298.421 84.8404C297.663 85.136 296.126 85.4006 295.463 84.7511C294.062 83.4417 297.307 80.0498 297.893 78.8263Z" fill="#591D4B"/>
<path opacity="0.1" d="M332.276 118.482C331.707 117.348 331.335 116.042 330.367 115.238C329.501 114.516 328.336 114.341 327.253 114.018C323.696 112.949 320.711 109.646 320.596 105.88C320.542 104.11 321.087 102.336 320.843 100.584C320.701 99.5896 320.311 98.649 319.709 97.8516C318.775 96.6178 317.371 95.7896 316.616 94.415C315.333 92.1193 316.308 89.1328 315.381 86.6619C315.1 85.9093 314.528 85.1532 313.736 85.0913C312.944 85.0295 312.257 85.7065 311.499 86.0055C309.915 86.631 308.199 85.5656 306.879 84.4796C305.559 83.3936 304.06 82.153 302.377 82.3936C301.264 82.5551 300.384 83.3249 299.362 83.7236C298.604 84.0191 297.064 84.2872 296.4 83.6376C295.006 82.263 298.252 78.8779 298.834 77.6613C299.318 76.6578 299.558 75.5409 300.14 74.5924C300.171 74.5408 300.205 74.4893 300.238 74.4377C299.803 74.804 299.427 75.2378 299.125 75.723C298.546 76.6716 298.306 77.785 297.822 78.792C297.236 80.0085 293.991 83.404 295.388 84.7683C296.065 85.4213 297.588 85.1532 298.347 84.8576C299.362 84.4556 300.249 83.6858 301.362 83.5277C303.054 83.2837 304.544 84.5243 305.863 85.6103C307.183 86.6963 308.91 87.7616 310.487 87.1361C311.245 86.8372 311.908 86.1636 312.72 86.2254C313.533 86.2873 314.074 87.0399 314.369 87.796C315.293 90.2635 314.318 93.2499 315.601 95.5491C316.359 96.8997 317.763 97.7451 318.694 98.9857C319.3 99.7872 319.69 100.734 319.828 101.735C320.075 103.488 319.53 105.258 319.584 107.027C319.696 110.808 322.681 114.097 326.241 115.169C327.314 115.492 328.485 115.664 329.352 116.385C330.323 117.193 330.706 118.499 331.261 119.633C333.095 123.3 337.552 125.389 341.492 124.424L340.707 123.523C337.292 123.575 333.836 121.602 332.276 118.482Z" fill="black"/>
<path opacity="0.1" d="M308.943 102.797C308.5 103.484 307.231 107.003 306.171 110.076C305.18 109.684 304.279 107.186 304.279 107.186L309.566 99.5493C310.107 100.305 309.752 101.56 308.943 102.797Z" fill="black"/>
<path d="M309.146 102.591C308.703 103.278 307.434 106.797 306.374 109.87C305.383 109.481 304.483 106.979 304.483 106.979L309.769 99.3466C310.311 100.099 309.955 101.357 309.146 102.591Z" fill="#DCE7FF"/>
<path d="M278.408 137.7L275.477 128.314C275.443 128.204 275.43 128.088 275.439 127.973C275.449 127.858 275.48 127.746 275.533 127.644C275.585 127.541 275.656 127.45 275.743 127.376C275.83 127.302 275.931 127.246 276.039 127.211C276.257 127.142 276.494 127.163 276.696 127.27C276.899 127.377 277.052 127.56 277.122 127.781L280.053 137.157L279.762 139.119L278.408 137.7Z" fill="#BE8B87"/>
<path opacity="0.1" d="M275.755 127.489C275.974 127.419 276.211 127.44 276.414 127.547C276.618 127.653 276.771 127.838 276.841 128.06L279.772 137.435L279.552 138.906L279.766 139.133L280.057 137.17L277.109 127.795C277.039 127.574 276.886 127.39 276.683 127.283C276.48 127.177 276.244 127.155 276.026 127.225C275.842 127.285 275.684 127.406 275.576 127.568C275.633 127.537 275.693 127.51 275.755 127.489Z" fill="white"/>
<path d="M278.408 137.7L280.053 137.17L279.813 138.779L279.762 139.133L279.282 138.624L278.408 137.7Z" fill="#EFC8C4"/>
<path d="M279.282 138.624C279.31 138.587 279.346 138.557 279.387 138.535C279.41 138.519 279.438 138.511 279.466 138.511C279.494 138.511 279.522 138.519 279.546 138.535C279.569 138.563 279.588 138.594 279.603 138.627C279.626 138.665 279.656 138.698 279.692 138.722C279.729 138.746 279.77 138.762 279.813 138.768L279.762 139.112L279.282 138.624Z" fill="#727A9C"/>
<path d="M275.46 131.648C275.46 131.648 281.339 131.613 279.955 134.153C278.571 136.693 276.408 136.998 276.408 136.998L275.46 131.648Z" fill="#FFB0B1"/>
<path d="M238.898 17.6713H238.644C228.545 17.6713 219.613 23.0977 214.475 31.1051C209.338 23.0977 200.406 17.6713 190.307 17.6713H190.053C182.474 17.7446 175.229 20.8522 169.894 26.3188C164.558 31.7854 161.563 39.1692 161.559 46.8656C161.559 56.4229 165.681 69.9839 173.719 81.1427C189.034 102.405 214.475 121.008 214.475 121.008C214.475 121.008 239.917 102.409 255.228 81.1427C263.27 69.9839 267.388 56.4229 267.388 46.8656C267.384 39.1698 264.39 31.7865 259.055 26.32C253.72 20.8535 246.476 17.7455 238.898 17.6713ZM235.266 82.7785C234.116 82.7741 232.994 82.4166 232.048 81.753C231.101 81.0894 230.374 80.1506 229.963 79.0601H223.925C223.527 79.0576 223.14 78.929 222.818 78.6924C222.496 78.4559 222.255 78.123 222.128 77.7404L220.273 72.0665L214.404 92.8891C214.29 93.29 214.051 93.6423 213.722 93.8933C213.394 94.1443 212.994 94.2803 212.583 94.281H212.465C212.036 94.2599 211.627 94.0901 211.307 93.7999C210.987 93.5096 210.774 93.1166 210.705 92.6864L204.657 55.7493L200.237 77.6064C200.135 78.0216 199.9 78.3904 199.568 78.6538C199.236 78.9173 198.827 79.0603 198.406 79.0601H189.901C189.646 79.071 189.391 79.0295 189.152 78.938C188.914 78.8465 188.696 78.7068 188.511 78.5275C188.327 78.3482 188.18 78.1329 188.08 77.8946C187.98 77.6563 187.929 77.3998 187.929 77.1407C187.929 76.8816 187.98 76.6251 188.08 76.3868C188.18 76.1485 188.327 75.9332 188.511 75.7539C188.696 75.5746 188.914 75.4349 189.152 75.3434C189.391 75.2519 189.646 75.2104 189.901 75.2213H196.917L203.178 45.8346C203.281 45.4001 203.529 45.0154 203.88 44.7462C204.231 44.4769 204.664 44.34 205.103 44.3586C205.543 44.3773 205.963 44.5505 206.291 44.8485C206.618 45.1466 206.834 45.551 206.901 45.9927L213.078 83.6721L218.337 65.042C218.447 64.6496 218.678 64.3037 218.997 64.056C219.316 63.8082 219.706 63.6719 220.107 63.6673H220.144C220.542 63.6675 220.93 63.7951 221.252 64.0321C221.574 64.2691 221.814 64.6032 221.938 64.987L225.292 75.2316H229.888C230.215 74.2236 230.81 73.3267 231.607 72.6402C232.404 71.9536 233.372 71.504 234.405 71.341C235.438 71.178 236.495 71.3079 237.46 71.7163C238.424 72.1248 239.259 72.796 239.872 73.6558C240.484 74.5156 240.851 75.5306 240.932 76.5887C241.012 77.6469 240.803 78.707 240.328 79.6522C239.853 80.5974 239.129 81.3908 238.238 81.9449C237.346 82.499 236.322 82.7923 235.276 82.7923L235.266 82.7785Z" fill="#0BCAD4"/>
</g>
<defs>
<linearGradient id="paint0_linear" x1="120.6" y1="266.295" x2="120.6" y2="54.8247" gradientUnits="userSpaceOnUse">
<stop stop-color="#808080" stop-opacity="0.25"/>
<stop offset="0.54" stop-color="#808080" stop-opacity="0.12"/>
<stop offset="1" stop-color="#808080" stop-opacity="0.1"/>
</linearGradient>
<linearGradient id="paint1_linear" x1="75547.1" y1="159557" x2="75547.1" y2="51007.7" gradientUnits="userSpaceOnUse">
<stop stop-color="#808080" stop-opacity="0.25"/>
<stop offset="0.54" stop-color="#808080" stop-opacity="0.12"/>
<stop offset="1" stop-color="#808080" stop-opacity="0.1"/>
</linearGradient>
<clipPath id="clip0">
<rect width="374" height="269" fill="white"/>
</clipPath>
</defs>
</svg>
