<svg width="366" height="247" viewBox="0 0 366 247" fill="none" xmlns="http://www.w3.org/2000/svg">
<g clip-path="url(#clip0)">
<path opacity="0.1" d="M212.652 43.5604C189.189 42.7967 166.824 35.7023 145.5 27.942C124.176 20.1817 103.041 11.582 80.1262 7.46991C65.3936 4.82214 48.5448 4.44975 36.6765 11.8471C25.253 18.9636 21.5631 31.2493 19.5783 42.6483C18.0855 51.226 17.2195 60.2517 21.3003 68.2834C24.141 73.8567 29.1822 78.5431 32.6699 83.8828C44.801 102.461 36.225 125.373 23.0762 143.529C16.9095 152.05 9.75548 160.157 4.99738 169.217C0.239273 178.278 -1.96455 188.658 2.20048 197.898C6.32844 207.05 16.1614 213.936 26.8166 218.774C48.4572 228.592 73.9562 231.401 98.8217 233.01C153.863 236.535 209.202 235.008 264.388 233.48C284.812 232.912 305.327 232.341 325.418 229.378C336.575 227.733 348.097 225.127 356.197 218.834C366.479 210.843 369.029 197.317 362.138 187.297C350.58 170.496 318.625 166.32 310.544 148.288C306.099 138.363 310.665 127.304 317.128 118.099C330.988 98.3525 354.226 81.0268 355.449 58.4529C356.292 42.9481 345.121 27.4244 327.848 20.0871C309.745 12.3899 284.641 13.3619 271.286 26.0832C257.534 39.1895 233.366 44.2326 212.652 43.5604Z" fill="#0BCAD4"/>
<path d="M81.6325 228.813C81.6325 228.813 63.0988 215.691 59.5976 198.999C58.1778 191.989 54.3694 185.599 48.7436 180.787C46.0523 178.523 43.1456 176.495 40.0597 174.728" stroke="#535461" stroke-width="2" stroke-miterlimit="10"/>
<path d="M37.7919 164.212C39.4161 166.27 40.1507 174.99 40.1507 174.99C40.1507 174.99 31.4668 171.786 29.8393 169.732C29.0577 168.744 28.7271 167.506 28.9201 166.29C29.1132 165.074 29.8141 163.98 30.8687 163.248C31.9233 162.516 33.2452 162.207 34.5435 162.387C35.8419 162.568 37.0103 163.225 37.7919 164.212Z" fill="#0BCAD4"/>
<path d="M53.3669 171.054C53.5354 173.607 49.0974 181.301 49.0974 181.301C49.0974 181.301 43.662 174.188 43.4902 171.635C43.4248 170.418 43.8742 169.226 44.7409 168.316C45.6076 167.407 46.8219 166.855 48.1207 166.779C49.4194 166.702 50.698 167.108 51.6793 167.908C52.6607 168.709 53.2658 169.839 53.3636 171.054H53.3669Z" fill="#0BCAD4"/>
<path d="M68.4635 190.721C67.2369 193.006 59.2539 197.551 59.2539 197.551C59.2539 197.551 58.4013 188.841 59.6279 186.556C60.2318 185.481 61.2619 184.672 62.4966 184.301C63.7313 183.931 65.0719 184.029 66.2299 184.575C67.388 185.121 68.2708 186.071 68.6886 187.221C69.1063 188.37 69.0254 189.627 68.4635 190.721Z" fill="#0BCAD4"/>
<path d="M76.3116 208.003C75.513 210.449 68.4668 216.189 68.4668 216.189C68.4668 216.189 66.0507 207.741 66.8493 205.292C67.2332 204.117 68.0998 203.133 69.2585 202.556C70.4171 201.979 71.773 201.857 73.0278 202.217C74.2826 202.576 75.3335 203.388 75.9493 204.473C76.5651 205.558 76.6955 206.828 76.3116 208.003Z" fill="#0BCAD4"/>
<path d="M41.0639 187.487C43.7597 187.828 52.2819 184.224 52.2819 184.224C52.2819 184.224 45.0908 178.644 42.3815 178.303C41.0812 178.139 39.7646 178.466 38.7216 179.212C37.6786 179.957 36.9944 181.06 36.8197 182.278C36.645 183.496 36.994 184.729 37.7899 185.706C38.5859 186.682 39.7636 187.323 41.0639 187.487Z" fill="#0BCAD4"/>
<path d="M50.5161 207.593C53.2119 207.16 60.1772 201.338 60.1772 201.338C60.1772 201.338 51.5304 198.03 48.838 198.463C48.1933 198.562 47.576 198.779 47.0216 199.103C46.4673 199.426 45.9868 199.85 45.608 200.348C45.2292 200.846 44.9596 201.41 44.8146 202.007C44.6697 202.603 44.6524 203.221 44.7636 203.824C44.8749 204.426 45.1125 205.003 45.4628 205.519C45.8131 206.035 46.2692 206.482 46.8046 206.832C47.3401 207.182 47.9443 207.43 48.5825 207.561C49.2207 207.691 49.8801 207.702 50.5228 207.593H50.5161Z" fill="#0BCAD4"/>
<path d="M62.563 225.957C65.2959 225.957 73.2148 221.321 73.2148 221.321C73.2148 221.321 65.2925 216.691 62.5596 216.691C61.2477 216.691 59.9894 217.179 59.0617 218.048C58.134 218.917 57.6128 220.095 57.6128 221.324C57.6128 222.553 58.134 223.731 59.0617 224.6C59.9894 225.469 61.2477 225.957 62.5596 225.957H62.563Z" fill="#0BCAD4"/>
<path d="M261.679 115.318C261.679 115.318 273.102 96.3675 290.322 90.9079C297.552 88.659 303.81 84.2751 308.155 78.4138C310.192 75.6116 311.951 72.64 313.408 69.5364" stroke="#535461" stroke-width="2" stroke-miterlimit="10"/>
<path d="M324.218 66.0649C322.257 67.8448 313.128 69.6878 313.128 69.6878C313.128 69.6878 315.369 61.1985 317.331 59.4154C318.277 58.5854 319.534 58.1367 320.83 58.1659C322.127 58.1951 323.359 58.6999 324.262 59.5716C325.165 60.4433 325.666 61.6121 325.658 62.8266C325.65 64.041 325.133 65.2039 324.218 66.0649Z" fill="#0BCAD4"/>
<path d="M319.056 81.4119C316.36 81.9105 307.642 78.8114 307.642 78.8114C307.642 78.8114 314.449 72.8153 317.128 72.3261C317.772 72.1924 318.437 72.1804 319.085 72.2908C319.733 72.4012 320.352 72.6318 320.903 72.969C321.455 73.3062 321.929 73.7433 322.298 74.2545C322.667 74.7657 322.924 75.3408 323.052 75.9461C323.18 76.5513 323.178 77.1745 323.046 77.779C322.914 78.3835 322.654 78.9572 322.282 79.4663C321.909 79.9755 321.432 80.4098 320.878 80.7439C320.324 81.078 319.705 81.3051 319.056 81.4119Z" fill="#0BCAD4"/>
<path d="M300.266 98.0369C297.685 97.2006 291.818 90.3966 291.818 90.3966C291.818 90.3966 300.916 88.4462 303.504 89.2825C304.126 89.4757 304.701 89.7826 305.195 90.1855C305.689 90.5883 306.093 91.0791 306.383 91.6292C306.673 92.1794 306.843 92.778 306.884 93.3903C306.925 94.0027 306.836 94.6165 306.621 95.1962C306.407 95.776 306.071 96.31 305.635 96.7674C305.198 97.2248 304.669 97.5964 304.078 97.8607C303.486 98.125 302.845 98.2766 302.191 98.3069C301.536 98.3371 300.882 98.2454 300.266 98.0369Z" fill="#0BCAD4"/>
<path d="M282.999 107.618C280.304 107.202 273.308 101.411 273.308 101.411C273.308 101.411 281.931 98.0464 284.624 98.463C285.919 98.6626 287.078 99.3362 287.843 100.335C288.609 101.335 288.919 102.578 288.706 103.792C288.493 105.005 287.774 106.09 286.707 106.807C285.64 107.524 284.312 107.815 283.016 107.615L282.999 107.618Z" fill="#0BCAD4"/>
<path d="M300.03 72.1746C300.027 74.734 304.984 82.1597 304.984 82.1597C304.984 82.1597 309.934 74.7434 309.934 72.1872C309.951 71.5688 309.836 70.9535 309.595 70.3775C309.354 69.8015 308.993 69.2765 308.532 68.8334C308.071 68.3904 307.52 68.0382 306.912 67.7978C306.303 67.5573 305.649 67.4335 304.989 67.4335C304.328 67.4335 303.674 67.5573 303.066 67.7978C302.457 68.0382 301.906 68.3904 301.445 68.8334C300.985 69.2765 300.623 69.8015 300.382 70.3775C300.142 70.9535 300.026 71.5688 300.044 72.1872L300.03 72.1746Z" fill="#0BCAD4"/>
<path d="M280.004 83.6177C280.819 86.0604 287.909 91.7567 287.909 91.7567C287.909 91.7567 290.268 83.2927 289.446 80.8501C289.019 79.7184 288.141 78.7858 286.995 78.2487C285.849 77.7116 284.525 77.6119 283.302 77.9706C282.079 78.3293 281.053 79.1184 280.439 80.1717C279.825 81.2251 279.671 82.4605 280.01 83.6177H280.004Z" fill="#0BCAD4"/>
<path d="M262.188 97.2416C262.552 99.7663 268.509 106.51 268.509 106.51C268.509 106.51 272.354 98.5418 271.99 96.0076C271.918 95.3936 271.716 94.7994 271.395 94.2598C271.074 93.7202 270.64 93.2461 270.121 92.8656C269.601 92.485 269.006 92.2056 268.369 92.0438C267.733 91.8819 267.068 91.841 266.414 91.9232C265.761 92.0055 265.131 92.2094 264.563 92.5229C263.994 92.8364 263.499 93.2532 263.105 93.7487C262.711 94.2443 262.427 94.8085 262.27 95.4084C262.112 96.0082 262.084 96.6315 262.188 97.2416Z" fill="#0BCAD4"/>
<path opacity="0.25" d="M324.218 66.0649C322.257 67.8448 313.128 69.6878 313.128 69.6878C313.128 69.6878 315.369 61.1985 317.331 59.4154C318.277 58.5854 319.534 58.1367 320.83 58.1659C322.127 58.1951 323.359 58.6999 324.262 59.5716C325.165 60.4433 325.666 61.6121 325.658 62.8266C325.65 64.041 325.133 65.2039 324.218 66.0649Z" fill="black"/>
<path opacity="0.25" d="M319.056 81.4119C316.36 81.9105 307.642 78.8114 307.642 78.8114C307.642 78.8114 314.449 72.8153 317.128 72.3261C317.772 72.1924 318.437 72.1804 319.085 72.2908C319.733 72.4012 320.352 72.6318 320.903 72.969C321.455 73.3062 321.929 73.7433 322.298 74.2545C322.667 74.7657 322.924 75.3408 323.052 75.9461C323.18 76.5513 323.178 77.1745 323.046 77.779C322.914 78.3835 322.654 78.9572 322.282 79.4663C321.909 79.9755 321.432 80.4098 320.878 80.7439C320.324 81.078 319.705 81.3051 319.056 81.4119Z" fill="black"/>
<path opacity="0.25" d="M300.266 98.0369C297.685 97.2006 291.818 90.3966 291.818 90.3966C291.818 90.3966 300.916 88.4462 303.504 89.2825C304.126 89.4757 304.701 89.7826 305.195 90.1855C305.689 90.5883 306.093 91.0791 306.383 91.6292C306.673 92.1794 306.843 92.778 306.884 93.3903C306.925 94.0027 306.836 94.6165 306.621 95.1962C306.407 95.776 306.071 96.31 305.635 96.7674C305.198 97.2248 304.669 97.5964 304.078 97.8607C303.486 98.125 302.845 98.2766 302.191 98.3069C301.536 98.3371 300.882 98.2454 300.266 98.0369Z" fill="black"/>
<path opacity="0.25" d="M282.999 107.618C280.304 107.202 273.308 101.411 273.308 101.411C273.308 101.411 281.931 98.0464 284.624 98.463C285.919 98.6626 287.078 99.3362 287.843 100.335C288.609 101.335 288.919 102.578 288.706 103.792C288.493 105.005 287.774 106.09 286.707 106.807C285.64 107.524 284.312 107.815 283.016 107.615L282.999 107.618Z" fill="black"/>
<path opacity="0.25" d="M300.03 72.1746C300.027 74.734 304.984 82.1597 304.984 82.1597C304.984 82.1597 309.934 74.7434 309.934 72.1872C309.951 71.5688 309.836 70.9535 309.595 70.3775C309.354 69.8015 308.993 69.2765 308.532 68.8334C308.071 68.3904 307.52 68.0382 306.912 67.7978C306.303 67.5573 305.649 67.4335 304.989 67.4335C304.328 67.4335 303.674 67.5573 303.066 67.7978C302.457 68.0382 301.906 68.3904 301.445 68.8334C300.985 69.2765 300.623 69.8015 300.382 70.3775C300.142 70.9535 300.026 71.5688 300.044 72.1872L300.03 72.1746Z" fill="black"/>
<path opacity="0.25" d="M280.004 83.6177C280.819 86.0604 287.909 91.7567 287.909 91.7567C287.909 91.7567 290.268 83.2927 289.446 80.8501C289.019 79.7184 288.141 78.7858 286.995 78.2487C285.849 77.7116 284.525 77.6119 283.302 77.9706C282.079 78.3293 281.053 79.1184 280.439 80.1717C279.825 81.2251 279.671 82.4605 280.01 83.6177H280.004Z" fill="black"/>
<path opacity="0.25" d="M262.188 97.2416C262.552 99.7663 268.509 106.51 268.509 106.51C268.509 106.51 272.354 98.5418 271.99 96.0076C271.918 95.3936 271.716 94.7994 271.395 94.2598C271.074 93.7202 270.64 93.2461 270.121 92.8656C269.601 92.485 269.006 92.2056 268.369 92.0438C267.733 91.8819 267.068 91.841 266.414 91.9232C265.761 92.0055 265.131 92.2094 264.563 92.5229C263.994 92.8364 263.499 93.2532 263.105 93.7487C262.711 94.2443 262.427 94.8085 262.27 95.4084C262.112 96.0082 262.084 96.6315 262.188 97.2416Z" fill="black"/>
<path d="M262.336 114.943C262.336 114.943 264.58 93.2811 277.945 81.7622C283.582 76.9615 287.405 70.5792 288.843 63.5718C289.497 60.2406 289.823 56.8601 289.816 53.473" stroke="#535461" stroke-width="2" stroke-miterlimit="10"/>
<path d="M298.194 46.1639C297.183 48.5371 289.621 53.6875 289.621 53.6875C289.621 53.6875 287.997 45.0751 289.018 42.7019C289.509 41.5624 290.464 40.6523 291.672 40.1721C292.88 39.6918 294.242 39.6806 295.459 40.1409C296.676 40.6013 297.648 41.4955 298.16 42.6268C298.673 43.7581 298.685 45.0338 298.194 46.1734V46.1639Z" fill="#0BCAD4"/>
<path d="M300.118 62.1705C297.884 63.6412 288.559 64.124 288.559 64.124C288.559 64.124 292.192 56.0639 294.426 54.5933C294.956 54.2219 295.56 53.9539 296.203 53.8051C296.845 53.6563 297.513 53.6297 298.166 53.7269C298.82 53.8242 299.446 54.0432 300.008 54.3712C300.569 54.6991 301.055 55.1292 301.436 55.6361C301.817 56.143 302.085 56.7162 302.225 57.322C302.365 57.9278 302.374 58.5537 302.251 59.1627C302.128 59.7717 301.876 60.3514 301.51 60.8675C301.143 61.3837 300.67 61.8257 300.118 62.1674V62.1705Z" fill="#0BCAD4"/>
<path d="M290.123 84.5076C287.4 84.7222 279.09 80.7206 279.09 80.7206C279.09 80.7206 286.571 75.4819 289.294 75.2673C290.602 75.1643 291.899 75.552 292.901 76.3451C293.904 77.1382 294.529 78.2716 294.639 79.4961C294.748 80.7206 294.334 81.9359 293.488 82.8746C292.641 83.8132 291.431 84.3984 290.123 84.5013V84.5076Z" fill="#0BCAD4"/>
<path d="M278.494 99.8106C275.849 100.442 266.939 97.8318 266.939 97.8318C266.939 97.8318 273.365 91.4854 276.01 90.8416C277.28 90.5332 278.629 90.7098 279.76 91.3327C280.891 91.9556 281.711 92.9738 282.041 94.1631C282.37 95.3525 282.181 96.6157 281.516 97.6748C280.851 98.7339 279.764 99.5021 278.494 99.8106Z" fill="#0BCAD4"/>
<path d="M278.73 60.946C279.835 63.2845 287.565 68.2045 287.565 68.2045C287.565 68.2045 288.88 59.5448 287.774 57.2063C287.224 56.1122 286.238 55.2633 285.028 54.8408C283.817 54.4184 282.479 54.4559 281.298 54.9455C280.117 55.4351 279.187 56.3378 278.707 57.4608C278.227 58.5839 278.235 59.8381 278.73 60.9555V60.946Z" fill="#0BCAD4"/>
<path d="M265.372 79.0039C267.175 80.9258 276.118 83.4442 276.118 83.4442C276.118 83.4442 274.609 74.8129 272.806 72.891C272.38 72.4241 271.86 72.041 271.275 71.7641C270.69 71.4872 270.052 71.3219 269.398 71.2778C268.745 71.2338 268.088 71.3118 267.467 71.5074C266.845 71.7031 266.272 72.0124 265.779 72.4174C265.287 72.8224 264.885 73.3151 264.598 73.8667C264.31 74.4184 264.143 75.0181 264.105 75.6309C264.067 76.2437 264.159 76.8575 264.377 77.4365C264.595 78.0156 264.933 78.5483 265.372 79.0039Z" fill="#0BCAD4"/>
<path d="M254.963 98.2294C256.392 100.407 264.752 104.304 264.752 104.304C264.752 104.304 264.823 95.5595 263.404 93.3788C262.698 92.3719 261.601 91.6622 260.345 91.4003C259.09 91.1383 257.775 91.3447 256.679 91.9757C255.583 92.6066 254.793 93.6125 254.476 94.7799C254.158 95.9474 254.339 97.1847 254.98 98.2294H254.963Z" fill="#0BCAD4"/>
<path d="M245.15 30.1101C245.71 28.1881 246.384 26.2567 246.855 24.3096C246.289 26.2567 245.612 28.1944 245.15 30.1101Z" fill="url(#paint0_linear)"/>
<path d="M242.643 48.6224C242.596 48.5466 242.562 48.4709 242.525 48.4015C242.525 48.3699 242.492 48.3447 242.478 48.3131C242.405 48.3456 242.329 48.374 242.252 48.3983C242.104 48.452 241.952 48.5025 241.797 48.5435C241.642 48.5845 241.578 48.6066 241.46 48.6318C241.363 48.6634 241.262 48.6877 241.16 48.7044L241.187 48.7612C241.312 48.736 241.433 48.7139 241.558 48.6823L241.592 49.0737C241.733 49.0737 241.865 49.0547 241.993 49.0547C242.053 49.0516 242.114 49.0516 242.175 49.0547C242.438 49.0547 242.667 49.0547 242.849 49.0547C242.778 48.9127 242.704 48.7644 242.643 48.6224ZM311.049 150.598C309.466 148.6 306.305 127.159 306.305 127.159C306.305 127.159 300.087 111.913 301.782 105.829C303.477 99.7442 297.152 84.1763 297.152 84.1763C297.152 84.1763 292.974 82.4753 292.748 79.9506C292.748 79.9506 275.687 74.9013 274.888 71.1142C274.241 68.0089 263.66 65.7808 259.859 65.0771C258.7 60.6967 257.534 56.6099 256.675 54.3787C256.442 53.6844 256.223 53.0848 256.021 52.6114C254.569 49.1399 250.08 48.8244 246.825 49.1021C246.684 48.5104 246.422 47.9499 246.053 47.4516C246 47.2802 245.893 47.1276 245.747 47.0129C245.677 46.9571 245.602 46.9065 245.524 46.8614C245.465 46.7591 245.388 46.6673 245.295 46.59C245.203 46.512 245.101 46.4442 244.992 46.388C244.914 46.3483 244.832 46.3136 244.749 46.2839C244.554 46.2142 244.352 46.1624 244.146 46.1292C243.906 46.083 243.663 46.0535 243.418 46.0409C244.013 45.7972 244.543 45.4342 244.972 44.9774C245.263 44.6567 245.48 44.2826 245.609 43.8791C245.715 43.5435 245.763 43.1939 245.75 42.844C245.663 42.9882 245.561 43.1245 245.447 43.2511C245.588 41.8531 244.8 40.4329 244.348 39.0412C243.801 37.2293 243.7 35.3249 244.052 33.4711C244.503 30.675 245.622 27.8473 246.38 25.0007C246.382 24.985 246.382 24.9691 246.38 24.9534C246.778 23.5397 247.024 22.0924 247.115 20.633C247.246 17.6886 246.441 14.7505 245.147 12.068C243.998 9.69164 242.303 7.35315 239.708 6.38745C237.781 5.65845 235.621 5.77521 233.545 5.65529C228.888 5.38389 224.446 3.85014 220.019 2.45525C215.591 1.06035 211.035 -0.208303 206.374 0.0346981C201.714 0.2777 196.919 2.38266 194.792 6.24544C194.119 7.45098 193.731 8.79222 192.926 9.92518C191.416 12.0617 188.713 13.1315 186.459 14.6053C184.205 16.0791 182.22 18.1714 181.404 20.6677C180.959 22.0126 180.896 23.4431 181.222 24.8177C181.296 25.1281 181.39 25.4338 181.506 25.7329C181.825 26.5668 182.324 27.3304 182.971 27.9767C183.459 28.4544 184.02 28.8617 184.636 29.1854C185.409 29.5867 186.237 29.8882 187.096 30.0817C187.066 30.1764 187.035 30.2773 187.002 30.3752C186.948 30.5361 186.901 30.6908 186.85 30.8643C186.739 31.2525 186.634 31.647 186.547 32.0446C186.543 32.0729 186.543 32.1015 186.547 32.1298C186.133 33.9249 185.925 35.7562 185.927 37.5926C185.926 38.4611 185.973 39.3291 186.068 40.1931C187.416 52.9996 198.705 63.1015 212.652 63.7579C213.131 63.78 213.613 63.7926 214.101 63.7926C214.324 63.7926 214.543 63.7926 214.775 63.7926C214.994 64.064 215.21 64.3417 215.415 64.6131C215.621 64.8845 215.81 65.1623 215.988 65.4337L215.5 64.9603L215.011 64.5406C214.879 64.7108 214.731 64.8702 214.57 65.0171C214.251 64.9121 213.926 64.8257 213.596 64.7583C212.197 64.468 210.068 64.3607 207.264 65.1528C204.686 65.8755 201.535 67.3619 197.849 70.1864L179.885 80.2852L170.166 85.8205L166.665 93.8364C166.665 93.8364 164.033 103.361 161.105 114.274C160.99 114.305 160.879 114.337 160.768 114.375C160.531 114.35 160.292 114.337 160.054 114.337C158.355 114.333 156.72 114.946 155.494 116.047C154.267 117.148 153.544 118.652 153.476 120.242C147.653 126.869 147.323 133.496 148.691 136.538C148.815 136.823 148.971 137.095 149.156 137.35C150.052 138.561 151.727 141.686 153.425 145.015C153.381 145.29 153.355 145.52 153.341 145.694C153.338 145.75 153.338 145.807 153.341 145.864C153.341 145.864 154.352 160.163 150.982 164.263C150.244 165.156 150.355 166.33 150.982 167.63C153.24 172.307 162.166 178.552 162.166 178.552C162.166 178.552 172.872 178.499 178.837 177.89C178.82 178.451 178.806 179.01 178.793 179.556C178.658 185.072 178.658 189.696 178.658 189.696L178.436 195.481C178.436 195.481 176.414 207.672 175.403 211.033C174.766 213.141 175.501 232.66 176.141 247.009H281.621C282.861 238.52 281.112 212.727 281.112 212.727C281.112 212.727 279.451 206.059 279.39 200.246C279.387 200.239 279.385 200.232 279.385 200.225C279.385 200.218 279.387 200.211 279.39 200.205C279.39 199.697 279.39 199.201 279.411 198.715L280.176 198.69L281.55 198.646H281.675C281.675 198.646 281.709 198.526 281.786 198.33C281.968 197.843 282.216 197.379 282.524 196.951C283.111 196.14 284.027 195.345 285.405 195.291C286.167 195.263 287.346 194.685 288.677 193.833C288.686 193.835 288.696 193.835 288.704 193.833C292.286 191.564 297.021 187.376 298.17 186.688C299.751 185.742 307.319 179.43 307.319 179.43C307.319 179.43 308.448 178.092 309.651 176.479L309.695 176.422C311.191 174.402 312.781 171.988 312.39 171.228C311.717 169.864 312.842 166.604 312.842 166.604C316.357 160.58 312.633 152.595 311.049 150.598ZM245.888 53.5297C245.921 53.624 245.941 53.7214 245.949 53.8201C245.865 53.7159 245.78 53.6055 245.696 53.5045L245.615 53.4035L245.558 53.3278L245.686 53.1637C245.686 53.1637 245.686 53.1637 245.686 53.1858C245.775 53.2881 245.844 53.4046 245.888 53.5297ZM244.756 50.7337C244.389 50.8031 244.099 50.8662 243.91 50.9135C243.671 50.5159 243.442 50.1183 243.236 49.7143C243.776 50.0078 244.285 50.3492 244.756 50.7337ZM244.122 51.2323C244.121 51.226 244.121 51.2196 244.122 51.2133L244.149 51.2323C244.288 51.3175 244.422 51.3995 244.547 51.4847C244.658 51.5605 244.759 51.6331 244.86 51.7088C244.793 51.8193 244.719 51.9329 244.645 52.0244C244.527 51.8508 244.416 51.6836 244.308 51.51C244.24 51.4406 244.18 51.3459 244.122 51.2323ZM242.101 47.3379C242.752 47.2778 243.407 47.2778 244.058 47.3379C244.149 47.3379 244.23 47.3537 244.311 47.3663C244.494 47.3928 244.673 47.4361 244.847 47.4957C245.245 48.0175 245.49 48.628 245.558 49.2662L245.376 49.2914L245.197 49.323C244.86 49.3766 244.523 49.4303 244.261 49.4808L243.924 49.5471C243.475 49.6386 243.216 49.708 243.206 49.7112C243.162 49.6259 243.118 49.547 243.071 49.465C242.997 49.3293 242.919 49.1904 242.852 49.0547C242.785 48.919 242.697 48.7644 242.626 48.6224C242.579 48.5466 242.545 48.4709 242.508 48.4015C242.508 48.3699 242.475 48.3447 242.461 48.3131C242.442 48.2796 242.425 48.2448 242.411 48.209C242.205 47.8176 242.016 47.4263 241.834 47.0413C241.814 47.0034 241.797 46.9624 241.78 46.9245L242.037 46.9087V46.9908L242.101 47.3379ZM161.701 243.109C161.674 238.41 161.311 233.326 160.3 228.554C159.868 226.525 159.423 224.496 158.972 222.501C158.857 222.002 158.746 221.51 158.635 221.018L157.597 221.147H157.503C154.672 208.647 151.713 197.633 151.713 197.633C151.713 197.633 145.837 176.618 146.517 174.942C146.605 174.724 146.494 174.137 146.244 173.276C144.822 168.498 138.885 155.332 136.809 150.831C136.809 150.812 136.792 150.79 136.785 150.775C136.448 150.02 136.206 149.512 136.132 149.364L136.62 142.648L136.647 142.244L136.711 141.386L136.684 141.364L136.711 140.966C136.711 140.966 131.582 137.028 122.895 134.184C122.558 134.071 122.201 133.96 121.847 133.853C122.282 131.136 122.858 128.068 123.61 125.079C123.68 124.78 123.758 124.489 123.839 124.196C123.91 123.902 123.99 123.618 124.071 123.331C124.199 122.864 124.337 122.403 124.479 121.949C124.947 121.81 125.409 121.655 125.864 121.491L126.039 121.428C131.643 119.386 136.268 115.511 139.056 110.521C141.844 105.531 142.607 99.764 141.203 94.2877C140.403 91.1819 138.925 88.2647 136.863 85.7196C136.708 85.5239 136.543 85.3282 136.378 85.1357C136.213 84.9432 136.014 84.7286 135.828 84.533C136.802 82.4595 137.951 80.4871 138.046 78.4705C138.063 78.2152 138.063 77.9591 138.046 77.7037V77.6721C137.921 76.375 137.308 75.0622 135.879 73.6831C133.793 71.6602 130.824 70.6345 127.856 70.1422C124.887 69.6499 121.861 69.6373 118.875 69.3059C113.925 68.7505 109.103 67.3209 104.153 66.8822C98.0553 66.3534 91.9166 67.3328 86.3502 69.7225C82.667 71.3004 78.9367 74.0586 78.7143 77.8425C78.5323 80.97 80.8575 83.9681 80.2711 87.0576C79.6881 90.0936 76.3858 92.4826 76.6756 95.5532C76.7868 96.7525 77.4439 97.8255 78.2661 98.7817C78.5492 99.0973 78.8491 99.4129 79.1591 99.7284C80.3587 100.918 81.6797 102.061 82.3503 103.56C82.3772 103.623 82.4042 103.686 82.4278 103.749C82.9972 105.229 82.7411 107.101 81.3326 107.949C81.3404 107.955 81.3462 107.963 81.3494 107.972C81.3697 107.997 81.3899 108.016 81.4067 108.041C81.4088 108.036 81.4088 108.03 81.4067 108.025C81.9061 108.58 82.5794 108.973 83.3309 109.149L83.6173 109.231C83.3848 109.467 83.1657 109.714 82.9433 109.972L82.7984 110.152C82.4271 110.62 82.0893 111.11 81.7875 111.62C81.6156 111.904 81.4505 112.188 81.3124 112.472C80.8505 113.338 80.5161 114.258 80.3183 115.208C79.9577 117.297 80.4666 119.475 79.9207 121.52C79.2467 124.044 77.1136 125.982 75.9106 128.327C73.6327 132.745 74.9233 137.93 75.3816 142.809C76.005 149.436 74.9941 156.092 73.9865 162.675C73.4518 166.176 72.9172 169.68 72.3825 173.187C71.0346 181.99 69.6867 190.793 68.3388 199.596C67.8468 202.821 67.2638 206.223 64.969 208.713H64.9926C64.9926 208.713 64.9926 208.732 64.969 208.738C65.6579 209.02 66.3906 209.197 67.1391 209.262C70.1349 209.543 73.3092 208.186 76.005 206.703C78.1399 205.547 80.1617 204.218 82.047 202.73C81.7707 203.676 81.4741 204.708 81.1574 205.819C81.1584 205.83 81.1584 205.84 81.1574 205.851C77.3529 219.421 71.2334 244.299 71.2334 244.299C71.2334 244.299 70.6774 245.381 69.9563 246.994H164.984C163.872 245.731 162.837 244.523 162.028 243.547L161.701 243.109ZM91.3408 117.632C91.3644 117.594 91.3812 117.559 91.4048 117.524C91.4048 117.625 91.4048 117.723 91.4048 117.818C91.4048 117.913 91.4048 117.998 91.4048 118.086C91.4048 118.174 91.4048 118.165 91.4048 118.209C91.4048 118.253 91.4048 118.209 91.4048 118.209C91.4048 118.339 91.3745 118.468 91.3509 118.597C91.3509 118.597 91.3509 118.613 91.3509 118.626L91.6879 118.743L92.0788 118.894C94.3882 119.748 96.7268 120.521 99.0946 121.214C99.3372 121.286 99.5832 121.356 99.8292 121.422L99.8798 121.813C99.9404 122.214 99.9977 122.621 100.052 123.028C100.052 123.028 100.052 123.047 100.052 123.06C100.203 124.186 100.352 125.31 100.483 126.408C100.483 126.408 94.2961 124.199 94.3736 127.554C94.37 127.614 94.37 127.674 94.3736 127.734C94.3667 127.813 94.3667 127.894 94.3736 127.973C94.4309 130.586 95.3036 132.136 95.4789 132.931C95.4684 132.964 95.4499 132.994 95.4249 133.02C95.2754 133.324 95.2239 133.663 95.2767 133.995C95.2708 134.559 95.3181 135.123 95.4182 135.68C95.2362 135.784 95.0576 135.888 94.879 135.996C94.7442 136.075 94.6162 136.163 94.4848 136.251C93.6581 133.566 92.5766 130.955 91.2532 128.45C90.3265 126.664 89.2852 124.802 89.2953 122.842C89.2953 122.716 89.2953 122.586 89.3122 122.457C89.3498 121.889 89.4653 121.328 89.6559 120.788C89.7334 120.582 89.8177 120.38 89.912 120.182C90.1322 119.709 90.3786 119.248 90.65 118.799C90.8252 118.503 91.0105 118.209 91.1891 117.913C91.2464 117.824 91.3004 117.733 91.3543 117.644L91.3408 117.632ZM242.643 48.6224C242.596 48.5466 242.562 48.4709 242.525 48.4015C242.525 48.3699 242.492 48.3447 242.478 48.3131C242.405 48.3456 242.329 48.374 242.252 48.3983C242.104 48.452 241.952 48.5025 241.797 48.5435C241.642 48.5845 241.578 48.6066 241.46 48.6318L241.16 48.7044L241.187 48.7612C241.312 48.736 241.433 48.7139 241.558 48.6823L241.592 49.0737C241.733 49.0737 241.865 49.0547 241.993 49.0547H242.175C242.438 49.0547 242.667 49.0547 242.849 49.0547C242.778 48.9127 242.704 48.7644 242.643 48.6224Z" fill="url(#paint1_linear)"/>
<path d="M169.014 94.9757L166.992 95.8121C166.992 95.8121 153.813 143.762 153.813 147.638C153.813 151.513 181.758 173.077 181.758 173.077L186.119 145.514C186.119 145.514 179.858 82.3049 169.014 94.9757Z" fill="#E8F5FF"/>
<path d="M230.313 79.7234L218.637 74.0176C217.983 71.4066 216.822 68.9302 215.213 66.7118C213.505 64.4017 211.234 62.1326 208.403 60.9492C201.249 57.9448 238.663 42.1749 238.663 42.1749C239.253 44.0693 239.947 45.9338 240.743 47.7608C242.67 52.2169 245.868 57.9795 249.989 59.6205C256.995 62.4135 230.313 79.7234 230.313 79.7234Z" fill="#FFC1C7"/>
<path opacity="0.1" d="M240.743 47.7608C239.144 53.0263 235.819 57.6885 231.239 61.089C226.658 64.4894 221.052 66.4562 215.213 66.7118C213.505 64.4017 211.234 62.1326 208.403 60.9492C201.249 57.9448 238.663 42.1749 238.663 42.1749C239.253 44.0693 239.947 45.9338 240.743 47.7608Z" fill="black"/>
<path d="M241.794 39.7986C241.795 44.9628 240.161 50.0113 237.099 54.3057C234.036 58.6001 229.682 61.9475 224.588 63.9245C219.494 65.9014 213.888 66.4192 208.48 65.4122C203.072 64.4053 198.104 61.9189 194.204 58.2675C190.305 54.6161 187.649 49.9637 186.574 44.8988C185.498 39.8339 186.05 34.5839 188.16 29.8129C190.271 25.0419 193.844 20.9642 198.429 18.0954C203.015 15.2267 208.405 13.6958 213.919 13.6964C217.584 13.6806 221.216 14.3449 224.606 15.651C227.995 16.9571 231.075 18.8791 233.666 21.306C236.258 23.7329 238.311 26.6167 239.706 29.7907C241.101 32.9648 241.811 36.3662 241.794 39.7986Z" fill="#FFC1C7"/>
<path d="M245.817 76.3719L238.215 92.9844L231.509 104.011H210.044L203.783 88.9354L206.32 73.3013H222.714L233.299 72.7427L236.874 71.6255L239.179 72.85L245.817 76.3719Z" fill="#575A89"/>
<path opacity="0.1" d="M243.199 54.2273C243.199 54.2273 247.94 55.174 243.694 58.434C239.449 61.6941 224.8 72.0611 224.8 72.0611C224.8 72.0611 229.946 76.3531 228.881 81.3803L245.929 72.4808L248.961 58.2415C248.961 58.2415 249.302 53.9622 243.199 54.2273Z" fill="black"/>
<path opacity="0.1" d="M228.153 72.061L217.309 73.7368C217.309 73.7368 219.547 81.4844 218.428 83.6841C218.394 83.7524 218.366 83.8231 218.344 83.8955L213.919 95.0957L217.235 103.891L228.712 89.2321L224.8 83.6841C224.8 83.6841 228.935 78.5526 231.395 76.7727C233.855 74.9928 228.153 72.061 228.153 72.061Z" fill="black"/>
<path d="M228.153 71.6287L217.309 73.3013C217.309 73.3013 219.547 81.0489 218.428 83.2485C218.394 83.3169 218.366 83.3876 218.344 83.46L213.919 94.6601L217.235 103.456L228.712 88.7871L224.8 83.2391C224.8 83.2391 228.935 78.1076 231.395 76.3277C233.855 74.5478 228.153 71.6287 228.153 71.6287Z" fill="#DCE6F2"/>
<path d="M243.654 53.3909C243.654 53.3909 248.395 54.3376 244.146 57.5976C239.897 60.8576 224.8 72.0609 224.8 72.0609C224.8 72.0609 230.391 75.5166 229.329 80.5407L246.377 71.6444L249.41 57.4051C249.41 57.4051 249.747 53.1258 243.654 53.3909Z" fill="#575A89"/>
<path opacity="0.1" d="M215.958 67.6996C215.958 67.6996 216.992 69.511 221.559 72.7774C221.559 72.7774 213.956 76.5644 216.864 81.8884L205.235 79.0481L203.446 73.8125L215.958 67.6996Z" fill="black"/>
<path d="M215.51 67.2831C215.51 67.2831 216.544 69.0946 221.11 72.3609C221.11 72.3609 213.508 76.129 216.416 81.4687L204.791 78.6284L203.001 73.396L215.51 67.2831Z" fill="#575A89"/>
<path opacity="0.1" d="M245.817 76.3719L238.215 92.9844L231.523 104.011H210.044L203.783 88.9354L206.317 73.3013H210.876C210.802 76.9494 212.224 81.2351 212.133 82.8288C211.978 85.4482 216.305 99.5801 216.305 99.5801C216.305 99.5801 225.36 85.8648 228.935 84.6434C231.183 83.8766 235.944 77.4954 239.176 72.85L245.817 76.3719Z" fill="black"/>
<path d="M275.764 163.792L274.993 164.701C274.993 164.701 280.583 190.98 279.037 196.948C278.774 198.024 278.623 199.121 278.588 200.224V200.271C278.315 206.343 280.273 214.223 280.273 214.223C280.273 214.223 281.837 237.45 280.947 247.003H176.276C175.662 232.877 175.002 214.577 175.602 212.547C176.613 209.199 178.634 197.052 178.634 197.052L178.857 191.296C178.857 191.296 178.857 185.732 179.039 179.534C179.116 176.747 179.231 173.822 179.396 171.228C179.608 167.964 179.905 165.216 180.313 163.865C180.564 162.841 180.708 161.797 180.744 160.747C180.744 160.649 180.744 160.548 180.764 160.447C180.764 160.132 180.798 159.791 180.811 159.441C180.811 159.343 180.811 159.245 180.811 159.125C180.875 157.093 180.852 154.681 180.781 152.182C180.781 152.046 180.781 151.907 180.781 151.769C180.724 149.894 180.639 147.982 180.545 146.164C180.252 140.483 179.871 135.68 179.871 135.68L167.016 95.7899L170.48 87.7992L180.094 82.2828L197.869 72.2314C206.539 65.5567 212.248 66.3583 214.425 67.0905C214.636 67.158 214.843 67.2371 215.045 67.3272C215.112 67.3587 215.166 67.384 215.217 67.4124C215.286 67.4431 215.352 67.479 215.415 67.5197C214.819 67.7882 214.301 68.1878 213.906 68.6842C213.46 69.2491 213.142 69.8935 212.972 70.5777C212.859 71.0018 212.779 71.4332 212.733 71.8685C212.689 72.3261 212.672 72.7994 212.672 73.276C212.696 74.321 212.792 75.3635 212.959 76.3971C212.959 76.416 212.959 76.4413 212.959 76.4665C213.07 77.205 213.208 77.9277 213.343 78.6062C213.341 78.6177 213.341 78.6294 213.343 78.6409C213.498 79.4331 213.653 80.1652 213.757 80.7964C213.778 80.91 213.795 81.0141 213.811 81.112C213.886 81.5291 213.921 81.9515 213.916 82.3743C213.954 83.3953 214.101 84.4103 214.354 85.4039C214.442 85.8205 214.543 86.2655 214.654 86.7294C214.805 87.3606 214.971 88.0486 215.149 88.7492C215.247 89.1342 215.351 89.5318 215.459 89.9263C215.5 90.0841 215.543 90.2419 215.584 90.4028L215.651 90.6522C216.369 93.3252 217.147 95.9856 217.626 97.5951C217.909 98.5418 218.088 99.1256 218.088 99.1256C218.088 99.1256 223.163 91.4411 227.213 87.0671C227.274 87.004 227.328 86.944 227.385 86.8872C227.786 86.4549 228.18 86.0604 228.557 85.7132C229.383 84.9432 230.124 84.3941 230.721 84.1921C230.848 84.1484 230.971 84.0946 231.088 84.0311C232.746 83.1507 235.422 79.9538 237.925 76.6054C238.171 76.2898 238.411 75.9458 238.653 75.6208C239.209 74.8697 239.748 74.1154 240.257 73.3927C240.648 72.8405 241.022 72.304 241.376 71.7927C243.061 69.3374 244.247 67.5071 244.247 67.5071L246.586 67.4092L246.993 67.3903H247.266L257.885 66.9295C257.885 66.9295 258.343 67.0021 259.098 67.1441C259.138 67.1441 259.179 67.1441 259.222 67.1694C262.99 67.87 273.456 70.0885 274.096 73.1655C274.878 76.9336 291.761 81.9609 291.761 81.9609C291.983 84.4856 296.118 86.1487 296.118 86.1487C296.118 86.1487 302.379 101.644 300.704 107.716C299.05 113.712 305.011 128.545 305.169 128.961L304.027 130.312L275.764 163.792Z" fill="#E8F5FF"/>
<path opacity="0.1" d="M243.196 53.1258C243.196 53.1258 253.531 50.3802 255.88 56.0324C258.228 61.6845 263.482 84.5109 263.482 84.5109C263.482 84.5109 249.841 86.9188 246.266 84.5109C244.168 83.0818 241.573 82.4462 238.997 82.731L231.284 87.651L229.006 87.0198C229.006 87.0198 241.346 69.8393 244.028 64.0009C246.71 58.1626 247.617 55.5527 243.196 53.1258Z" fill="black"/>
<path d="M242.748 51.8635C242.748 51.8635 253.089 49.1179 255.448 54.77C257.807 60.4222 263.05 83.2486 263.05 83.2486C263.05 83.2486 249.413 85.6565 245.834 83.2486C243.738 81.8194 241.144 81.1837 238.569 81.4687L230.849 86.3886L228.571 85.7575C228.571 85.7575 240.911 68.5769 243.593 62.7386C246.276 56.9002 247.169 54.2967 242.748 51.8635Z" fill="#E8F5FF"/>
<path opacity="0.1" d="M173.374 142.926C173.374 142.926 181.088 144.706 182.543 148.79C183.999 152.873 176.842 152.977 176.842 152.977C176.842 152.977 172.481 145.754 173.374 142.926Z" fill="black"/>
<path opacity="0.1" d="M202.105 173.077C202.105 173.077 183.214 209.303 187.574 212.759C191.935 216.215 202.105 173.077 202.105 173.077Z" fill="black"/>
<path opacity="0.1" d="M228.153 146.382C228.153 146.382 243.246 181.569 240.227 187.004C237.208 192.438 246.71 187.004 246.71 187.004L228.153 146.382Z" fill="black"/>
<path d="M249.17 181.14C249.17 181.14 198.193 183.444 213.063 198.311C227.934 213.179 258.451 198.943 258.451 198.943L249.17 181.14Z" fill="#FFC1C7"/>
<path opacity="0.1" d="M241.794 39.7987C241.799 43.2228 241.081 46.6141 239.681 49.7775C239.213 49.828 238.744 49.8595 238.293 49.8785C237.619 48.4931 237.979 46.893 237.993 45.3687C238.006 43.8445 237.407 42.0519 235.84 41.6417C232.716 40.818 230.559 46.2871 227.479 45.2993C225.12 44.5482 225.737 41.1967 224.379 39.2622C223.304 37.7316 221.151 37.2992 219.476 36.3398C215.914 34.2917 216.022 31.0159 214.367 27.9168C212.635 24.6694 208.976 25.6288 205.798 27.5444C203.385 29.0024 201.303 30.9559 198.722 32.1173C196.487 33.1272 193.977 33.4932 191.5 33.5469C189.975 33.6022 188.45 33.4513 186.971 33.0987C188.711 26.9745 192.769 21.6517 198.39 18.1231C204.011 14.5946 210.81 13.1011 217.52 13.9211C224.23 14.7412 230.392 17.8189 234.858 22.5802C239.324 27.3415 241.788 33.4614 241.791 39.7987H241.794Z" fill="black"/>
<path d="M205.808 26.708C203.392 28.166 201.313 30.1164 198.732 31.284C196.498 32.2908 193.987 32.6568 191.51 32.7105C188.478 32.7736 185.212 32.275 183.14 30.2237C181.236 28.3302 180.781 25.4173 181.586 22.9336C182.392 20.45 184.323 18.3892 186.59 16.8965C188.858 15.4037 191.49 14.3718 192.993 12.2352C193.788 11.1054 194.172 9.77367 194.833 8.57129C196.946 4.72429 201.697 2.64142 206.29 2.38264C210.883 2.12386 215.436 3.40514 219.81 4.79372C224.184 6.1823 228.591 7.70974 233.208 7.99692C235.263 8.11684 237.4 7.99692 239.307 8.72592C241.871 9.70109 243.553 12.0333 244.699 14.4065C245.982 17.0827 246.781 20.005 246.646 22.9273C246.363 29.1665 241.962 35.2888 243.897 41.266C244.409 42.8597 245.369 44.4945 244.857 46.0882C244.109 48.4141 240.904 48.9443 238.313 49.0547C237.639 47.6693 238 46.0661 238.013 44.545C238.027 43.0239 237.427 41.2282 235.863 40.8179C232.736 40.0005 230.579 45.4602 227.506 44.4756C225.164 43.7213 225.771 40.3729 224.409 38.4384C223.334 36.9046 221.178 36.4754 219.506 35.5161C215.944 33.4679 216.052 30.1921 214.398 27.0931C212.652 23.8299 208.989 24.7893 205.808 26.708Z" fill="#99607E"/>
<path d="M156.377 146.798L153.806 147.638C153.806 147.638 154.817 161.877 151.447 165.961C148.077 170.044 162.514 180.197 162.514 180.197C162.514 180.197 182.301 180.093 182.86 178.619C183.42 177.145 181.849 152.236 181.849 152.236C181.849 152.236 171.228 148.36 172.121 142.184C172.121 142.184 168.879 156.736 164.074 156.108C159.268 155.48 153.813 151.721 156.377 146.798Z" fill="#E8F5FF"/>
<path opacity="0.1" d="M164.953 160.513C168.7 160.513 171.737 157.912 171.737 154.704C171.737 151.495 168.7 148.894 164.953 148.894C161.207 148.894 158.17 151.495 158.17 154.704C158.17 157.912 161.207 160.513 164.953 160.513Z" fill="black"/>
<path d="M172.37 147.218C172.37 147.218 171.022 108.691 159.289 117.275C147.555 125.859 147.441 136.125 149.675 139.158C151.909 142.191 159.073 157.374 159.073 157.374C160.194 157.982 161.452 158.333 162.746 158.398C164.039 158.462 165.33 158.239 166.514 157.747C167.697 157.254 168.74 156.506 169.555 155.563C170.37 154.621 170.935 153.511 171.204 152.324L172.37 147.218Z" fill="#FFC1C7"/>
<path opacity="0.1" d="M245.565 49.6291C245.51 49.4598 245.405 49.3087 245.261 49.1936C244.682 48.6981 243.435 48.5246 241.555 48.676L241.632 49.5092C244.139 49.3072 244.635 49.7743 244.699 49.8532V49.9321L244.776 50.0362C245.089 50.4297 245.31 50.8799 245.426 51.3581C245.542 51.8364 245.55 52.332 245.45 52.8134C244.901 55.3854 241.528 57.4336 241.494 57.4556L241.413 57.4998L241.363 57.5724C239.907 59.5953 231.674 65.3043 229.521 66.7812L229.332 66.5792C228.369 67.3619 219.897 74.308 219.439 76.9683C219.142 78.6378 217.134 79.2847 216.406 79.4646C215.638 78.9187 213.144 77.0599 211.847 74.977C210.63 73.0172 215.527 69.1923 215.958 67.6996L215.284 67.0526C215.213 67.2925 208.925 72.7963 210.674 75.6082C212.076 77.8646 214.637 79.796 215.533 80.4335C215.247 82.8698 213.464 97.1753 210.725 100.565C207.321 104.778 204.46 126.01 204.777 133.424C205.057 140.01 203.22 152.45 197.087 157.793C196.025 158.759 194.745 159.487 193.34 159.924C191.936 160.362 190.444 160.496 188.976 160.318H188.902H188.828C188.74 160.318 179.844 161.17 172.37 155.268C166.254 150.449 162.79 142.585 162.069 131.887H161.92L161.86 128.772C163.518 128.529 165.012 127.695 166.026 126.443C167.041 125.191 167.498 123.619 167.302 122.058C167.105 120.497 166.27 119.068 164.972 118.071C163.674 117.075 162.014 116.588 160.341 116.714C158.668 116.839 157.112 117.567 156 118.745C154.889 119.922 154.307 121.457 154.379 123.028C154.45 124.598 155.169 126.082 156.383 127.166C157.598 128.251 159.214 128.852 160.893 128.844H160.967L161.027 131.94L160.731 131.959C161.472 143.005 165.112 151.175 171.514 156.222C176.381 159.998 182.597 161.903 188.905 161.552C189.353 161.598 189.803 161.621 190.253 161.621C193.145 161.635 195.928 160.587 198.004 158.702C204.464 153.069 206.428 140.171 206.122 133.36C205.785 125.506 208.787 105.037 211.8 101.31C214.752 97.6519 216.541 83.4 216.854 80.6386C217.922 80.3577 220.339 79.4709 220.75 77.1672C221.046 75.5009 226.704 70.3663 230.185 67.5228L230.081 67.4092C231.954 66.128 237.78 62.0885 240.668 59.4943C241.565 58.6896 242.454 57.8848 243.384 57.118C244.503 56.1901 245.925 54.7164 246.299 52.9743C246.427 52.3993 246.427 51.8059 246.301 51.2306C246.175 50.6554 245.924 50.1103 245.565 49.6291Z" fill="black"/>
<path d="M215.419 80.2347C215.277 80.1432 211.921 77.893 210.239 75.1853C208.494 72.3734 214.782 66.8728 214.849 66.6329L215.523 67.2799C215.095 68.7695 210.199 72.5975 211.416 74.5541C212.949 77.0252 216.177 79.1869 216.211 79.209L215.419 80.2347Z" fill="#353146"/>
<path d="M229.083 67.3935L228.557 66.715C228.665 66.6424 239.25 59.4723 240.918 57.1527L240.972 57.0833L241.049 57.036C241.083 57.0139 244.456 54.9689 245.005 52.3937C245.107 51.9129 245.099 51.4175 244.983 50.9397C244.867 50.4618 244.645 50.0121 244.331 49.6197L244.254 49.5124V49.4366C244.187 49.3546 243.691 48.8907 241.184 49.0927L241.107 48.2564C242.99 48.1049 244.234 48.2784 244.813 48.7739C244.958 48.8902 245.064 49.0422 245.12 49.2126C245.484 49.6924 245.74 50.2371 245.871 50.8129C246.002 51.3888 246.005 51.9837 245.881 52.561C245.507 54.3061 244.089 55.7799 242.967 56.7046C242.04 57.4715 241.147 58.2825 240.254 59.081C236.867 62.1201 229.454 67.1442 229.083 67.3935Z" fill="#E8F5FF"/>
<path d="M161.425 127.673L160.532 127.688L160.632 132.772L161.524 132.756L161.425 127.673Z" fill="#E8F5FF"/>
<path d="M160.458 128.444C164.059 128.444 166.978 125.71 166.978 122.337C166.978 118.964 164.059 116.23 160.458 116.23C156.857 116.23 153.938 118.964 153.938 122.337C153.938 125.71 156.857 128.444 160.458 128.444Z" fill="#0BCAD4"/>
<path d="M160.458 127.409C163.449 127.409 165.873 125.138 165.873 122.337C165.873 119.536 163.449 117.266 160.458 117.266C157.467 117.266 155.043 119.536 155.043 122.337C155.043 125.138 157.467 127.409 160.458 127.409Z" fill="#E8F5FF"/>
<path d="M189.829 161.214C189.379 161.215 188.929 161.193 188.481 161.148C182.173 161.496 175.958 159.591 171.09 155.818C164.687 150.768 161.054 142.607 160.306 131.552L161.654 131.473C162.375 142.172 165.839 150.039 171.959 154.855C179.433 160.741 188.326 159.904 188.414 159.904H188.488H188.562C190.03 160.082 191.522 159.947 192.927 159.51C194.332 159.073 195.613 158.345 196.676 157.38C202.806 152.037 204.642 139.596 204.363 133.01C204.026 125.591 206.887 104.358 210.293 100.148C213.276 96.459 215.126 79.8308 215.146 79.6635L215.196 79.1901L215.695 79.1081C215.725 79.1081 218.637 78.5905 219.001 76.5518C219.473 73.8946 227.931 66.9485 228.891 66.1627L229.771 67.1095C226.276 69.9498 220.618 75.0875 220.335 76.757C219.924 79.067 217.508 79.9507 216.443 80.2284C216.106 82.9929 214.33 97.2417 211.389 100.899C208.376 104.626 205.374 125.095 205.711 132.95C206 139.761 204.056 152.662 197.596 158.292C195.516 160.182 192.727 161.231 189.829 161.214Z" fill="#353146"/>
<g opacity="0.1">
<path opacity="0.1" d="M244.665 32.3381C245.218 30.4256 245.885 28.5006 246.35 26.5629C245.794 28.51 245.123 30.4256 244.665 32.3381Z" fill="black"/>
<path opacity="0.1" d="M239.027 47.3663C238.353 45.9809 238.714 44.3777 238.727 42.8566C238.741 41.3355 238.141 39.5556 236.578 39.1295C233.45 38.3122 231.294 43.775 228.221 42.7872C225.862 42.0329 226.485 38.6845 225.124 36.75C224.049 35.2162 221.895 34.7871 220.224 33.8277C216.659 31.7795 216.767 28.5037 215.116 25.4047C213.38 22.1541 209.724 23.1135 206.543 25.0323C204.127 26.4903 202.048 28.4438 199.466 29.6083C197.232 30.615 194.722 30.9811 192.245 31.0347C189.229 31.101 185.947 30.5992 183.874 28.5479C182.277 26.97 181.701 24.6567 182.031 22.4886C181.974 22.637 181.923 22.7853 181.873 22.9336C181.064 25.4173 181.536 28.3365 183.426 30.2237C185.499 32.275 188.781 32.7736 191.797 32.7105C194.277 32.6568 196.784 32.2908 199.022 31.284C201.61 30.1164 203.689 28.166 206.098 26.708C209.279 24.7893 212.939 23.8299 214.671 27.0804C216.322 30.1795 216.217 33.4553 219.779 35.5034C221.464 36.4502 223.604 36.892 224.682 38.4258C226.03 40.3666 225.434 43.7087 227.779 44.4629C230.849 45.4476 233.006 39.9879 236.133 40.8053C237.696 41.2155 238.299 43.0144 238.283 44.5324C238.266 46.0503 237.915 47.6567 238.583 49.0421C241.174 48.9316 244.379 48.4109 245.13 46.0756C245.233 45.7404 245.281 45.3924 245.272 45.0436C244.176 46.8141 241.359 47.2685 239.027 47.3663Z" fill="black"/>
</g>
<path opacity="0.1" d="M299.929 125.127L303.841 129.002C303.841 129.002 306.972 150.358 308.535 152.356C310.099 154.353 313.792 162.3 310.325 168.268C310.325 168.268 309.206 171.515 309.877 172.875C310.547 174.235 304.849 181.042 304.849 181.042C304.849 181.042 297.358 187.323 295.791 188.266C294.224 189.21 285.955 196.746 283.161 196.85C280.368 196.954 279.454 200.202 279.454 200.202L263.691 200.726C263.691 200.726 254.983 200.3 253.089 201.451C253.089 201.451 254.1 188.992 244.372 180.825L256.779 176.637C256.779 176.637 261.477 174.743 262.929 172.765C263.843 171.552 265.139 170.637 266.636 170.148C266.636 170.148 270.1 167.845 270.211 166.589C270.322 165.333 274.447 163.792 274.447 163.792L272.112 145.126L273.342 114.135C273.342 114.135 277.254 88.1685 285.527 89.636C293.799 91.1035 299.929 125.127 299.929 125.127Z" fill="black"/>
<path d="M301.277 125.127L305.189 129.002C305.189 129.002 308.32 150.358 309.883 152.356C311.447 154.353 315.14 162.3 311.673 168.268C311.673 168.268 310.557 171.515 311.228 172.875C311.898 174.235 306.197 181.042 306.197 181.042C306.197 181.042 298.706 187.323 297.139 188.266C295.572 189.21 287.303 196.746 284.509 196.85C281.715 196.954 280.802 200.202 280.802 200.202L265.039 200.726C265.039 200.726 256.324 200.3 254.437 201.451C254.437 201.451 255.448 188.992 245.72 180.825L258.127 176.637C258.127 176.637 262.825 174.743 264.277 172.765C265.191 171.552 266.487 170.637 267.984 170.148C267.984 170.148 271.448 167.845 271.559 166.589C271.67 165.333 275.795 163.792 275.795 163.792L273.46 145.126L274.69 114.135C274.69 114.135 278.602 88.1685 286.875 89.636C295.147 91.1035 301.277 125.127 301.277 125.127Z" fill="#E8F5FF"/>
<path opacity="0.1" d="M286.733 156.433C286.733 156.433 298.248 153.593 301.267 157.064C304.286 160.536 286.733 156.433 286.733 156.433Z" fill="black"/>
<path opacity="0.1" d="M284.051 161.195C287.963 163.761 300.037 163.865 300.037 163.865L284.051 161.195Z" fill="black"/>
<path opacity="0.1" d="M289.975 174.021C290.312 174.125 298.275 182.084 301.617 179.676C304.96 177.268 289.975 174.021 289.975 174.021Z" fill="black"/>
<path opacity="0.1" d="M182.735 107.224C182.735 107.224 185.074 122.302 183.922 128.444C182.769 134.585 186.975 142.194 186.975 142.194L182.735 107.224Z" fill="black"/>
<path d="M130.962 113.355C128.267 115.334 126.299 120.018 124.873 125.165C122.386 134.143 121.574 144.554 121.574 144.554C121.574 144.554 100.109 139.947 101.672 137.854C102.656 136.538 101.335 126.623 100.234 119.434C99.5765 115.186 98.9901 111.888 98.9901 111.888C98.9901 111.888 138.342 107.908 130.962 113.355Z" fill="#FFCCD0"/>
<path opacity="0.1" d="M130.962 112.936C128.267 114.918 126.299 119.598 124.873 124.745C120.597 125.961 116.048 126.071 111.71 125.062C107.372 124.054 103.407 121.965 100.234 119.017C99.5765 114.766 98.9901 111.468 98.9901 111.468C98.9901 111.468 138.342 107.492 130.962 112.936Z" fill="black"/>
<path d="M142.5 101.657C142.503 107.146 140.431 112.459 136.653 116.655C132.875 120.851 127.633 123.66 121.856 124.585C116.079 125.51 110.138 124.491 105.086 121.709C100.034 118.926 96.1956 114.56 94.2506 109.382C92.3056 104.204 92.3794 98.5483 94.4587 93.4163C96.538 88.2843 100.489 84.0066 105.612 81.3404C110.735 78.6742 116.701 77.7914 122.452 78.8481C128.203 79.9049 133.37 82.8331 137.038 87.1145C140.573 91.2387 142.499 96.3685 142.5 101.657Z" fill="#FFCCD0"/>
<path opacity="0.1" d="M162.072 247.003H154.996L154.399 235.298L153.776 223.183C153.776 223.183 155.383 222.959 157.944 222.624L158.979 222.495H159.063C159.622 224.953 160.175 227.478 160.707 229.999C161.594 234.476 162.055 239.017 162.086 243.57C162.086 243.885 162.086 244.201 162.086 244.497C162.106 245.34 162.086 246.183 162.072 247.003Z" fill="black"/>
<path d="M160.714 247.003H71.968C72.3522 246.186 72.6083 245.69 72.6083 245.69C72.6083 245.69 79.7084 216.6 83.3174 204.292C83.3185 204.281 83.3185 204.271 83.3174 204.26C83.7683 202.588 84.3127 200.94 84.9483 199.321C84.9894 199.211 85.0425 199.105 85.1067 199.006C86.8927 196.285 89.1302 193.353 85.9997 189.166C82.8692 184.978 83.9778 166.551 83.9778 166.551C83.9778 166.551 87.7789 150.844 91.8024 142.468C92.413 141.171 93.2796 139.993 94.3567 138.997C94.7069 138.676 95.0807 138.379 95.4755 138.107C95.7756 137.896 96.0883 137.701 96.4123 137.523L96.4763 137.485C98.1665 136.588 100.043 136.042 101.979 135.885C103.354 135.751 104.742 135.787 106.107 135.993C112.631 136.889 117.854 138.388 122.006 140.095C133.257 144.725 136.664 150.929 136.731 151.059L136.758 151.112C137.21 152.1 143.815 166.541 146.194 173.279C146.81 175.034 147.147 176.268 147.013 176.605C146.339 178.278 152.155 199.217 152.155 199.217C152.155 199.217 154.851 209.316 157.546 221.153C157.664 221.646 157.776 222.138 157.883 222.637C158.365 224.786 158.844 226.976 159.306 229.163C160.2 233.67 160.661 238.244 160.684 242.828C160.733 244.257 160.743 245.648 160.714 247.003Z" fill="#0AA8B0"/>
<path opacity="0.1" d="M101.45 128.683C101.45 128.683 95.3272 126.474 95.4013 129.826C95.4754 133.177 96.8941 134.781 96.4459 135.27C95.9978 135.759 96.6683 138.691 96.6683 138.691C96.6683 138.691 104.941 138.691 108.742 140.294C112.543 141.897 126.555 145.11 128.344 146.088C130.133 147.066 136.769 151.453 136.769 151.453L137.365 143.147C137.365 143.147 130.508 137.842 119.256 135.121C108.004 132.401 101.45 128.683 101.45 128.683Z" fill="black"/>
<path d="M101.45 128.264C101.45 128.264 95.3272 126.055 95.4013 129.406C95.4754 132.758 96.8941 134.361 96.4459 134.85C95.9978 135.339 96.6683 138.271 96.6683 138.271C96.6683 138.271 104.941 138.271 108.742 139.877C112.543 141.484 126.555 144.693 128.344 145.668C130.133 146.644 136.769 151.033 136.769 151.033L137.372 142.752C137.372 142.752 130.514 137.447 119.263 134.727C108.011 132.007 101.45 128.264 101.45 128.264Z" fill="#0AA8B0"/>
<path opacity="0.1" d="M119.933 148.253C119.933 148.253 131.633 160.116 131.037 163.401C130.44 166.686 119.933 148.253 119.933 148.253Z" fill="black"/>
<path opacity="0.1" d="M100.928 191.106C100.928 191.106 92.3517 198.507 89.8244 198.927C87.2971 199.346 91.762 200.741 94.6667 199.627C97.5715 198.513 103.765 195.581 103.765 195.581L100.928 191.106Z" fill="black"/>
<path d="M164.198 247.003H144.199C141.402 244.731 138.757 242.626 137.072 241.361C134.376 239.334 132.432 236.352 131.192 233.954C130.912 233.408 130.669 232.896 130.464 232.433C130.096 231.633 129.772 230.817 129.493 229.987L144.303 221.75C145.122 222.402 145.891 223.106 146.605 223.858L146.783 224.051C147.606 224.96 148.33 225.991 148.394 226.837C148.468 227.822 151.393 231.631 154.382 235.289C157.415 239.009 160.522 242.566 160.728 242.806C160.728 242.806 161.24 243.459 162.075 244.463C162.665 245.189 163.393 246.06 164.198 247.003Z" fill="#FFCCD0"/>
<path opacity="0.1" d="M137.038 87.1144C136.327 88.6166 135.69 90.1756 135.596 91.8482C135.33 96.6767 135.761 107.473 130.053 109.897C127.225 111.09 124.199 108.47 121.099 108.407C118.868 108.363 116.823 109.688 115.462 111.345C114.1 113.002 113.254 114.968 112.267 116.843C111.368 118.544 110.333 120.179 109.17 121.734C108.823 122.21 108.44 122.663 108.024 123.088C104.544 121.713 101.444 119.611 98.962 116.944C96.4798 114.276 94.6805 111.114 93.7012 107.696C92.7218 104.279 92.5884 100.698 93.3109 97.225C94.0334 93.7522 95.5928 90.4796 97.8704 87.6567C100.148 84.8338 103.083 82.535 106.453 80.9355C109.823 79.336 113.538 78.4781 117.316 78.427C121.094 78.3759 124.834 79.133 128.251 80.6407C131.669 82.1484 134.674 84.3669 137.038 87.127V87.1144Z" fill="black"/>
<path d="M135.148 90.9961C134.878 95.8246 135.313 106.621 129.601 109.041C126.774 110.234 123.748 107.618 120.648 107.555C118.417 107.508 116.375 108.836 115.01 110.49C113.645 112.144 112.806 114.113 111.815 115.991C110.916 117.692 109.881 119.327 108.719 120.882C108.024 121.804 107.256 122.728 106.188 123.246C104.328 124.155 102.073 123.644 100.079 123.06C97.4906 122.296 94.9408 121.436 92.4292 120.478C92.4869 120.123 92.5161 119.764 92.5168 119.405C92.4427 119.538 92.3618 119.661 92.281 119.793L92.1226 120.052C91.8361 120.526 91.5564 120.999 91.3003 121.485C91.2026 121.671 91.1083 121.864 91.024 122.056C90.6851 122.773 90.4723 123.536 90.3939 124.316C90.222 126.421 91.3307 128.418 92.3146 130.312C96.0989 137.637 98.4375 146.202 95.59 153.886C94.3567 157.228 92.2203 160.198 90.6601 163.426C87.9327 169.144 87.1299 175.505 88.3585 181.661C89.137 185.486 90.6972 189.273 90.313 193.151C89.6391 199.826 83.4926 204.793 77.336 208.208C74.0101 210.045 69.9394 211.68 66.4079 210.228C68.6589 207.766 69.2385 204.361 69.7238 201.148C71.0514 192.386 72.3825 183.619 73.7169 174.847C74.2493 171.357 74.7806 167.867 75.3108 164.376C76.3015 157.818 77.3057 151.188 76.6857 144.589C76.2341 139.726 74.9604 134.563 77.2114 130.16C78.4009 127.828 80.5205 125.897 81.181 123.385C81.7235 121.343 81.218 119.172 81.5752 117.092C81.7707 116.146 82.1017 115.229 82.5592 114.365C83.1417 113.194 83.9022 112.108 84.8169 111.14C83.9138 110.894 83.0714 110.556 82.5592 109.849C84.0082 108.966 84.2272 106.974 83.5701 105.478C82.913 103.983 81.5988 102.843 80.416 101.663C79.2332 100.483 78.0942 99.1067 77.946 97.4972C77.6595 94.4329 80.9282 92.0597 81.5044 89.0364C82.0874 85.9594 79.7825 82.9676 79.9678 79.8528C80.1835 76.0878 83.8768 73.3517 87.5228 71.7643C93.025 69.3789 99.1029 68.399 105.14 68.924C110.053 69.3595 114.808 70.7828 119.707 71.3351C122.663 71.6507 125.658 71.6822 128.594 72.1683C131.529 72.6543 134.47 73.6799 136.536 75.6965C141.982 81.0141 135.458 85.3913 135.148 90.9961Z" fill="#FFE0D0"/>
<path opacity="0.1" d="M130.592 233.957C128.873 233.259 125.746 233.676 120.378 232.145C115.01 230.615 113.975 223.697 113.975 223.697V223.675C113.911 223.517 113.413 222.488 110.036 218.884C106.306 214.905 98.2421 194.805 98.2421 194.805C98.2421 194.805 91.0914 187.613 91.3172 184.962C91.543 182.311 90.0468 175.258 90.1951 167.368C90.3433 159.478 106.292 154.246 106.292 154.246C137.001 149.149 129.77 182.305 128.951 184.817C128.132 187.329 132.381 194.114 132.381 194.114C131.781 197.068 134.841 201.641 134.841 201.641C134.841 201.641 135.582 205.687 135.734 207.224C135.742 207.295 135.759 207.364 135.785 207.432C136.277 208.88 140.287 210.193 141.918 210.992C143.633 211.831 149.149 219.159 149.149 219.159C150.339 224.54 132.304 234.664 130.592 233.957Z" fill="black"/>
<path d="M131.485 232.695C129.77 231.994 126.639 232.414 121.274 230.88C115.91 229.346 114.872 222.435 114.872 222.435V222.413C114.811 222.252 114.309 221.226 110.933 217.622C107.202 213.643 99.1384 193.54 99.1384 193.54C99.1384 193.54 91.9878 186.351 92.2102 183.7C92.4326 181.049 90.9431 173.995 91.0914 166.112C91.2397 158.229 107.179 152.999 107.179 152.999C137.887 147.903 130.656 181.058 129.837 183.57C129.018 186.082 133.267 192.867 133.267 192.867C132.668 195.821 135.727 200.394 135.727 200.394C135.727 200.394 136.469 204.44 136.624 205.977C136.629 206.048 136.645 206.118 136.671 206.185C137.163 207.634 141.173 208.947 142.807 209.745C144.519 210.581 150.039 217.912 150.039 217.912C151.235 223.284 133.2 233.408 131.485 232.695Z" fill="#0AA8B0"/>
<path opacity="0.1" d="M107.785 170.309C107.785 170.309 121.2 183.564 124.701 183.564C128.203 183.564 107.785 170.309 107.785 170.309Z" fill="black"/>
<path d="M131.485 232.694C129.77 231.994 126.639 232.414 121.274 230.88C115.91 229.346 114.872 222.435 114.872 222.435V222.413C118.427 220.204 127.431 213.964 130.979 211.683C133.476 210.083 135.515 207.732 136.708 206.173C137.2 207.621 141.21 208.934 142.844 209.732C144.556 210.569 150.076 217.9 150.076 217.9C151.235 223.284 133.2 233.408 131.485 232.694Z" fill="#0AA8B0"/>
<g opacity="0.1">
<path opacity="0.1" d="M82.5794 109.884C82.5962 109.909 82.6198 109.931 82.6401 109.957C82.7411 109.837 82.8456 109.717 82.9534 109.603C82.8386 109.708 82.7134 109.802 82.5794 109.884Z" fill="black"/>
<path opacity="0.1" d="M90.3973 124.351C90.5388 122.599 91.5396 121.056 92.4764 119.516C91.8631 119.295 91.2498 119.071 90.6432 118.837C90.701 118.483 90.7303 118.126 90.7309 117.767C89.784 119.345 88.7528 120.898 88.6079 122.675C88.4361 124.783 89.5447 126.777 90.5287 128.671C94.3163 135.993 96.6515 144.558 93.8041 152.245C92.5674 155.584 90.4343 158.557 88.8741 161.785C86.1478 167.503 85.3461 173.862 86.5759 180.017C87.3476 183.845 88.9112 187.629 88.527 191.507C87.8531 198.182 81.71 203.149 75.5501 206.561C73.0329 207.956 70.0911 209.234 67.2773 209.142C67.0169 209.535 66.7263 209.909 66.4079 210.263C69.9428 211.724 74.0101 210.08 77.3361 208.237C83.4993 204.828 89.6559 199.874 90.3299 193.186C90.714 189.308 89.1504 185.524 88.3754 181.696C87.1452 175.542 87.9444 169.183 90.6668 163.464C92.2169 160.239 94.3736 157.263 95.5968 153.924C98.4442 146.237 96.1056 137.671 92.3214 130.35C91.3408 128.444 90.2254 126.459 90.3973 124.351Z" fill="black"/>
<path opacity="0.1" d="M136.529 75.7345C136.198 75.416 135.842 75.1207 135.464 74.8508C139.549 79.8118 133.652 84.0281 133.358 89.3678C133.095 94.1963 133.527 104.996 127.815 107.413C124.991 108.609 121.962 105.99 118.865 105.927C116.631 105.882 114.589 107.211 113.224 108.865C111.859 110.518 111.02 112.488 110.033 114.362C109.132 116.063 108.096 117.699 106.933 119.254C106.259 120.179 105.47 121.1 104.399 121.621C102.545 122.526 100.291 122.018 98.2926 121.431C96.3494 120.859 94.4241 120.228 92.5168 119.538C92.5129 119.867 92.4836 120.195 92.4292 120.519C94.9431 121.479 97.494 122.339 100.082 123.101C102.077 123.688 104.331 124.196 106.188 123.29C107.256 122.769 108.031 121.845 108.722 120.92C109.886 119.367 110.921 117.733 111.819 116.032C112.81 114.157 113.645 112.185 115.013 110.531C116.381 108.877 118.42 107.552 120.651 107.596C123.751 107.659 126.781 110.279 129.604 109.082C135.316 106.665 134.881 95.8657 135.148 91.0373C135.458 85.423 141.982 81.049 136.529 75.7345Z" fill="black"/>
</g>
<path opacity="0.1" d="M92.1259 120.055C91.8395 120.529 91.5598 121.002 91.3037 121.488C91.206 121.674 91.1116 121.867 91.0274 122.059C89.2616 120.393 84.9618 116.432 82.5626 115.205C83.1459 114.034 83.9063 112.948 84.8203 111.979C84.8203 111.979 90.5388 114.81 92.1259 120.055Z" fill="black"/>
<path d="M92.2843 119.797C90.96 114.182 84.8203 111.143 84.8203 111.143C83.9055 112.111 83.1451 113.197 82.5626 114.368C85.0932 115.666 89.757 120.014 91.3037 121.488L92.2843 119.797Z" fill="#0AA8B0"/>
</g>
<defs>
<linearGradient id="paint0_linear" x1="246.003" y1="30.1101" x2="246.003" y2="24.3096" gradientUnits="userSpaceOnUse">
<stop stop-color="#808080" stop-opacity="0.25"/>
<stop offset="0.54" stop-color="#808080" stop-opacity="0.12"/>
<stop offset="1" stop-color="#808080" stop-opacity="0.1"/>
</linearGradient>
<linearGradient id="paint1_linear" x1="154595" y1="207815" x2="154595" y2="14489.3" gradientUnits="userSpaceOnUse">
<stop stop-color="#808080" stop-opacity="0.25"/>
<stop offset="0.54" stop-color="#808080" stop-opacity="0.12"/>
<stop offset="1" stop-color="#808080" stop-opacity="0.1"/>
</linearGradient>
<clipPath id="clip0">
<rect width="366" height="247" fill="white"/>
</clipPath>
</defs>
</svg>
